<svg xmlns="http://www.w3.org/2000/svg" width="80.441" height="77.846" viewBox="0 0 80.441 77.846">
  <g id="Group_51" data-name="Group 51" transform="translate(832.828 -35.754)">
    <g id="Group_50" data-name="Group 50">
      <g id="Group_27" data-name="Group 27" transform="translate(-831.328 62.145)">
        <g id="Group_26" data-name="Group 26" transform="translate(0)">
          <path id="Path_33" data-name="Path 33" d="M48.348,78.013a22.549,22.549,0,0,0-22.522,22.4l-1.962-1.962a1.987,1.987,0,0,0-2.811,2.811l5.186,5.186a1.988,1.988,0,0,0,2.811,0l5.186-5.186a1.987,1.987,0,0,0-2.811-2.811l-1.616,1.616a18.547,18.547,0,1,1,18.538,19.021H19.364a1.988,1.988,0,0,0,0,3.975H48.348a22.525,22.525,0,0,0,0-45.05Z" transform="translate(-17.376 -78.013)" fill="#00649f" stroke="#00649f" stroke-width="3"/>
        </g>
      </g>
      <g id="Group_49" data-name="Group 49" transform="matrix(-0.993, -0.122, 0.122, -0.993, -798.692, 69.715)">
        <g id="Group_28" data-name="Group 28" transform="translate(0 0)">
          <path id="Path_34" data-name="Path 34" d="M9.856,26.2a13.6,13.6,0,0,1-4.726-.855l1.1,1.865A1.667,1.667,0,1,1,3.358,28.9L.231,23.6A1.667,1.667,0,0,1,.82,21.318l5.3-3.126a1.667,1.667,0,0,1,1.694,2.872L6.026,22.119A10.242,10.242,0,0,0,13.764,3.153,18.75,18.75,0,0,0,14.859,0a13.576,13.576,0,0,1-5,26.2Z" fill="#00649f"/>
        </g>
      </g>
      <g id="Group_31" data-name="Group 31" transform="translate(-798.052 96.958)">
        <g id="Group_30" data-name="Group 30" transform="translate(0 0)">
          <path id="Path_35" data-name="Path 35" d="M158.291,196.327l-5.186-5.186a1.987,1.987,0,1,0-2.811,2.811l1.869,1.869h-24.7a22.394,22.394,0,0,1-12.758,3.975h37.3l-1.718,1.718a1.988,1.988,0,0,0,2.811,2.811l5.186-5.186a1.987,1.987,0,0,0,0-2.811Z" transform="translate(-114.708 -190.559)" fill="#00649f"/>
        </g>
      </g>
      <g id="Group_44" data-name="Group 44" transform="translate(-832.124 61.349)">
        <g id="Group_43" data-name="Group 43" transform="translate(0 0)">
          <g id="Group_42" data-name="Group 42">
            <path id="Path_41" data-name="Path 41" d="M46.643,75.513A23.379,23.379,0,0,0,23.408,96.87l-.686-.686a2.783,2.783,0,0,0-3.936,3.936l5.186,5.186a2.783,2.783,0,0,0,3.936,0l5.186-5.186a2.783,2.783,0,1,0-3.936-3.936l-.079.079a17.752,17.752,0,1,1,17.563,20.325H17.659a2.783,2.783,0,0,0,0,5.566H46.643a23.32,23.32,0,0,0,0-46.641Zm0,45.05H17.659a1.192,1.192,0,0,1,0-2.384H46.643A19.338,19.338,0,1,0,27.31,98.343a.8.8,0,0,0,1.357.582l1.616-1.616a1.221,1.221,0,0,1,1.686,0,1.194,1.194,0,0,1,0,1.686l-5.186,5.186a1.221,1.221,0,0,1-1.686,0L19.911,99a1.194,1.194,0,0,1,0-1.686,1.221,1.221,0,0,1,1.686,0l1.962,1.962a.8.8,0,0,0,1.358-.558,21.728,21.728,0,1,1,21.726,21.849Z" transform="translate(-14.876 -75.513)" fill="#00649f"/>
          </g>
        </g>
      </g>
      <path id="Path_44" data-name="Path 44" d="M10.524,27.471a14.121,14.121,0,0,1-3.282-.387l.23.39a2.335,2.335,0,1,1-4.022,2.372l-3.126-5.3a2.334,2.334,0,0,1,.825-3.2l5.3-3.126a2.335,2.335,0,1,1,2.372,4.022l-.505.3A9.575,9.575,0,0,0,14.363,4.455.667.667,0,1,1,14.9,3.232,10.909,10.909,0,0,1,6.445,23.344a.667.667,0,0,1-.09-1.194L8.143,21.1A1,1,0,0,0,8.5,19.726a1,1,0,0,0-1.369-.353L1.828,22.5a1,1,0,0,0-.353,1.369l3.126,5.3a1,1,0,1,0,1.723-1.016l-1.1-1.865a.667.667,0,0,1,.807-.965,12.906,12.906,0,0,0,9.4-24.038A.667.667,0,1,1,15.931.05a14.244,14.244,0,0,1-5.407,27.42Z" transform="matrix(-0.993, -0.122, 0.122, -0.993, -797.652, 71.217)" fill="#00649f" stroke="#00649f" stroke-width="3"/>
      <g id="Group_48" data-name="Group 48" transform="translate(-800.186 96.163)">
        <g id="Group_47" data-name="Group 47" transform="translate(0 0)">
          <path id="Path_43" data-name="Path 43" d="M155.984,194.063l-5.186-5.186a2.783,2.783,0,0,0-3.936,3.936l.511.511h-22.5a.8.8,0,1,0,0,1.591h24.421a.8.8,0,0,0,.563-1.358l-1.869-1.869A1.192,1.192,0,1,1,149.673,190l5.186,5.186a1.185,1.185,0,0,1,.349.843,1.2,1.2,0,0,1-.349.843l-5.186,5.186a1.221,1.221,0,0,1-1.686,0,1.194,1.194,0,0,1,0-1.686l1.718-1.718a.8.8,0,0,0-.563-1.358H111.3a.8.8,0,1,0,0,1.591h35.926l-.36.36a2.783,2.783,0,1,0,3.936,3.936L155.984,198a2.783,2.783,0,0,0,0-3.935Z" transform="translate(-110.5 -188.063)" fill="#00649f" stroke="#00649f" stroke-width="3"/>
        </g>
      </g>
    </g>
  </g>
</svg>
