<svg xmlns="http://www.w3.org/2000/svg" width="36.443" height="36.443" viewBox="0 0 36.443 36.443">
  <g id="Group_1514" data-name="Group 1514" transform="translate(-1174.819 -1460.9)">
    <g id="Group_1512" data-name="Group 1512" transform="translate(1174.819 1460.9)">
      <path id="Path_936" data-name="Path 936" d="M1208.821,1470.011l-5.26-1.41-1.409-5.26-5.26,1.409-3.851-3.851-3.851,3.851-5.26-1.409-1.41,5.26-5.26,1.41,1.41,5.26-3.851,3.851,3.851,3.851-1.41,5.26,5.26,1.409,1.41,5.26,5.26-1.409,3.851,3.851,3.851-3.851,5.26,1.409,1.409-5.26,5.26-1.409-1.409-5.26,3.851-3.851-3.851-3.851Z" transform="translate(-1174.819 -1460.9)" fill="#ff152c"/>
    </g>
    <g id="Group_1513" data-name="Group 1513" transform="translate(1182.975 1475.891)">
      <path id="Path_937" data-name="Path 937" d="M1269.163,1640.769v-6.462h2.156c1.367,3.27,1.646,4.015,1.724,4.287h.032c-.066-.755-.089-1.862-.089-2.866v-1.421h1.63v6.462h-2.08c-1.489-3.657-1.705-4.238-1.787-4.48h-.02c.057.812.06,1.918.06,3.036v1.444Z" transform="translate(-1269.163 -1634.307)" fill="#fff"/>
      <path id="Path_938" data-name="Path 938" d="M1351.373,1638.113h-2.708v1.32h3.017l-.2,1.336h-4.535v-6.462h4.536v1.345h-2.818v1.115h2.708Z" transform="translate(-1340.223 -1634.307)" fill="#fff"/>
      <path id="Path_939" data-name="Path 939" d="M1408.071,1640.769l-1.4-6.462h1.876c.182,1.263.463,3.193.578,4.537h.033c.245-1.35.615-3.026.912-4.537h1.578c.256,1.255.641,3.087.848,4.464h.033c.151-1.325.544-3.51.675-4.464h1.712l-1.512,6.462h-1.826c-.252-1.312-.6-2.791-.8-4.051h-.026c-.219,1.24-.594,2.838-.844,4.051Z" transform="translate(-1394.78 -1634.307)" fill="#fff"/>
    </g>
  </g>
</svg>
