<?xml version="1.0" standalone="no"?>
<!DOCTYPE svg PUBLIC "-//W3C//DTD SVG 1.1//EN" "http://www.w3.org/Graphics/SVG/1.1/DTD/svg11.dtd">
<svg xmlns="http://www.w3.org/2000/svg">
<metadata>Generated by Fontastic.me</metadata>
<defs>
<font id="icons" horiz-adv-x="512">
<font-face font-family="icons" units-per-em="512" ascent="480" descent="-32"/>
<missing-glyph horiz-adv-x="512" />

<glyph glyph-name="nav-about-us" unicode="&#97;" d="M85 512l342 0c47 0 85-38 85-85l0-342c0-47-38-85-85-85l-342 0c-47 0-85 38-85 85l0 342c0 47 38 85 85 85z m277-319c-12 17-27 27-48 33l-20-71c0-6-5-12-12-12-6 0-11 6-11 12l0 57c0 8-7 14-15 14-8 0-15-6-15-14l0-57c0-6-5-12-11-12-7 0-12 6-12 12l-20 71c-21-6-36-16-48-33-5-6-8-19-8-26 0-2 0-4 0-6l0-24c0-13 11-23 24-23l180 0c13 0 24 10 24 23l0 24c0 2 0 4 0 6 0 7-3 20-8 26z m-167 143c0-35 21-86 61-86 39 0 61 51 61 86 0 34-27 62-61 62-34 0-61-28-61-62z"/>
<glyph glyph-name="nav-contact-us" unicode="&#98;" d="M85 512l342 0c47 0 85-38 85-85l0-342c0-47-38-85-85-85l-342 0c-47 0-85 38-85 85l0 342c0 47 38 85 85 85z m29-333c0-12 10-23 23-23l238 0c13 0 23 11 23 23l0 154c0 12-10 23-23 23l-238 0c-13 0-23-11-23-23z m87 77l-54 52c-5 5-5 12 0 16 4 4 12 4 16 0l87-83c3-4 9-4 12 0l87 83c4 4 12 4 16 0 5-4 5-11 0-16l-54-52 54-52c5-5 5-12 0-16-4-4-12-4-16 0l-54 52c0 0-17-16-20-19-5-5-12-8-19-8-7 0-14 3-19 8-3 3-20 19-20 19l-54-52c-4-4-12-4-16 0-5 4-5 11 0 16z"/>
<glyph glyph-name="nav-linked-in" unicode="&#99;" d="M427 512l-342 0c-47 0-85-38-85-85l0-342c0-47 38-85 85-85l342 0c47 0 85 38 85 85l0 342c0 47-38 85-85 85z m-260-417l-66 0 0 215 66 0z m-33 244c-22 0-39 18-39 39 0 21 17 39 39 39 21 0 38-18 38-39 0-21-17-39-38-39z m283-244l-67 0 0 105c0 25 0 57-34 57-35 0-40-27-40-55l0-107-67 0 0 215 64 0 0-29 1 0c9 16 30 34 63 34 67 0 80-44 80-102l0-118z"/>
<glyph glyph-name="nav-glossary" unicode="&#101;" d="M427 512l-342 0c-47 0-85-38-85-85l0-342c0-47 38-85 85-85l342 0c47 0 85 38 85 85l0 342c0 47-38 85-85 85z m-313-114l28 0 0-28-28 0z m28-199l-28 0 0 29 28 0z m256-71l-213 0 0 28 213 0z m0 71l-213 0 0 29 213 0z m0 100l-213 0 0 28 213 0z m0 71l-213 0 0 28 213 0z"/>
<glyph glyph-name="nav-free" unicode="&#102;" d="M230 267c0-9-7-15-19-15l-9 0 0 29c1 0 5 1 10 1 11 0 18-5 18-15z m282-11c0-20-8-39-22-53l-31-31 0-44c0-41-34-75-75-75l-44 0-31-31c-14-14-33-22-53-22-20 0-39 8-53 22l-31 31-44 0c-20 0-39 8-53 22-14 14-22 33-22 52l0 45-31 31c-14 14-22 33-22 53 0 20 8 39 22 53l31 31 0 44c0 41 34 75 75 75l44 0 31 31c14 14 33 22 53 22 20 0 39-8 53-22l31-31 44 0c20 0 39-8 53-22 14-14 22-33 22-53l0-44 31-31c14-14 22-33 22-53z m-351 42l-64 0 0-104 23 0 0 42 38 0 0 19-38 0 0 24 41 0 0 19z m96-104c-2 4-5 18-8 29-3 10-7 17-14 20l0 0c9 4 18 13 18 26 0 10-3 17-9 22-8 6-19 8-34 8-13 0-24-1-32-2l0-103 24 0 0 41 7 0c10 0 14-4 17-17 3-13 5-21 7-24l24 0 0 0z m80 19l-43 0 0 25 38 0 0 19-38 0 0 22 41 0 0 19-65 0 0-104 67 0z m83 0l-43 0 0 25 38 0 0 19-38 0 0 22 40 0 0 19-64 0 0-104 67 0z"/>
<glyph glyph-name="nav-bubble-man" unicode="&#104;" d="M197 325l42 0 0-31-42 0z m84 0l0-31 40 0 0 31z m-145-122c14-1 25-12 25-26 0-13-11-25-25-25l0-29 116-14 0 117-116 14z m53 133l57 0 0-14 28 0 0 14 54 0 0-14 27 3c-2 30-20 60-48 74-32 17-77 16-109-5-15-9-24-23-30-40-3-9-5-18-7-28l28-4z m238 176l-342 0c-47 0-85-38-85-85l0-342c0-47 38-85 85-85l342 0c47 0 85 38 85 85l0 342c0 47-38 85-85 85z m-261-118c22 23 56 33 91 33 62 0 94-33 108-71 7-18 8-36 10-52l-20-4c1 5 0 10 0 10l-27-4 0-22-54 0 0 23-28 0 0-23-57 0 0 23-28 4c0 1-2-9 0-14l-23 3-1 18c-1 27 10 57 29 76z m226-238l0-55-134-16-135 16 0 53c-9 4-15 13-15 23 0 11 6 20 15 24l0 64 135-16 134 16 0-66c7-4 12-12 12-22 0-9-5-17-12-21z m-128-46l116 13 0 29c-1 0-2 0-2 0-15 0-27 11-27 25 0 15 12 26 27 26 0 0 1 0 2 0l0 37-116-14z"/>
<glyph glyph-name="nav-benefits" unicode="&#105;" d="M427 512l-342 0c-47 0-85-38-85-85l0-342c0-47 38-85 85-85l342 0c47 0 85 38 85 85l0 342c0 47-38 85-85 85z m-221-398l-35 18-35-18 6 39-28 28 39 5 18 36 17-36 40-5-29-28z m-7 215l7-39-35 18-35-18 6 39-28 28 39 6 18 35 17-35 40-6z m132-187l-51 0c-5 0-10 3-10 7 0 4 5 7 10 7l51 0c6 0 10-3 10-7 0-4-4-7-10-7z m57 43l-108 0c-5 0-10 3-10 7 0 4 5 7 10 7l108 0c6 0 10-3 10-7 0-4-4-7-10-7z m-118 149c0 4 5 7 10 7l51 0c6 0 10-3 10-7 0-4-4-7-10-7l-51 0c-5 0-10 3-10 7z m118 36l-108 0c-5 0-10 3-10 7 0 4 5 7 10 7l108 0c6 0 10-3 10-7 0-4-4-7-10-7z"/>
<glyph glyph-name="nav-compare-plans" unicode="&#106;" d="M427 512l-342 0c-47 0-85-38-85-85l0-342c0-47 38-85 85-85l342 0c47 0 85 38 85 85l0 342c0 47-38 85-85 85z m-256-387c0-6-6-11-12-11l-33 0c-7 0-12 5-12 11l0 148c0 6 5 11 12 11l33 0c6 0 12-5 12-11z m113 0c0-6-5-11-11-11l-34 0c-7 0-11 5-11 11l0 262c0 6 4 11 11 11l34 0c6 0 11-5 11-11z m114 0c0-6-5-11-12-11l-33 0c-6 0-12 5-12 11l0 205c0 6 6 11 12 11l33 0c7 0 12-5 12-11z"/>
<glyph glyph-name="nav-paid-subscription" unicode="&#107;" d="M158 303c0-7 4-11 11-11 7 0 11 4 11 11l0 14 18 0c3 0 5 2 5 6 0 3-2 5-5 5l-18 0 0 4 2 4 16 0c3 0 5 3 5 6 0 3-2 6-5 6l-9 0 19 30c1 2 2 4 2 6 0 8-8 10-13 10-5 0-8-4-9-6l-19-36-19 36c-1 2-4 6-10 6-5 0-12-2-12-10 0-2 1-4 2-6l19-30-9 0c-3 0-6-3-6-6 0-3 3-6 6-6l15 0 3-4 0-4-18 0c-3 0-6-2-6-5 0-4 3-6 6-6l18 0z m102-107l0 34c20 0 20-19 31-19 6 0 12 4 12 11 0 17-29 26-43 26l0 10c0 3-2 6-5 6-3 0-5-3-5-6l0-10c-22-1-43-13-43-37 0-20 16-31 43-36l0-37c-30 1-14 25-34 25-7 0-11-4-11-11 0-14 15-32 45-32l0-12c0-3 2-6 5-6 3 0 5 3 5 6l0 12c27 1 45 13 45 37 0 27-21 34-45 39z m-10 2c-14 3-20 8-20 17 0 8 8 15 20 15z m10-60l0 35c10-2 22-6 22-18 0-12-11-17-22-17z m167 374l-342 0c-47 0-85-38-85-85l0-342c0-47 38-85 85-85l342 0c47 0 85 38 85 85l0 342c0 47-38 85-85 85z m-344-169c0 47 38 86 86 86 41 0 75-29 84-68-11-14-18-32-19-51-34-6-64-24-83-51-39 8-68 43-68 84z m172-267c-60 0-108 48-108 107 0 59 48 107 108 107 59 0 107-48 107-107 0-59-48-107-107-107z m122 147c-3 9-7 18-12 26 8 0 15 4 15 12 0 5-3 9-8 9-3 0-8-2-11-2-4 0-8 1-11 2-5 4-9 9-13 13 0 2 1 4 1 6 0 2 0 3-1 4l12 0c5 0 8 2 8 7 0 4-3 6-8 6l-16 0c-2 5-5 9-5 14 0 9 8 14 17 14 19 0 11-17 24-17 6 0 10 4 10 10 0 11-12 25-37 25-20 0-35-13-35-30 0-6 1-11 4-16l-3 0c-3 0-5-1-6-3-14 5-30 9-46 9 5 42 41 74 85 74 47 0 85-38 85-86 1-34-20-64-49-77z"/>
<glyph glyph-name="nav-buy" unicode="&#108;" d="M427 512l-342 0c-47 0-85-38-85-85l0-342c0-47 38-85 85-85l342 0c47 0 85 38 85 85l0 342c0 47-38 85-85 85z m-185-412c-16 0-29 12-29 28 0 16 13 29 29 29 15 0 28-13 28-29 0-16-13-28-28-28z m85 0c-15 0-28 12-28 28 0 16 13 29 28 29 16 0 29-13 29-29 0-16-13-28-29-28z m71 113l0-14c0-9-5-14-14-14l-185 0c-13 0-13 11-14 14l-29 157-42 0 0 14c0 8 5 14 14 14l54 0 17-114 157 0 14 86 28 0-14-86c-3-17-11-28-28-28l-143 0 0-29z"/>
<glyph glyph-name="nav-question" unicode="&#109;" d="M427 512l-342 0c-47 0-85-38-85-85l0-342c0-47 38-85 85-85l342 0c47 0 85 38 85 85l0 342c0 47-38 85-85 85z m-157-398l-42 0 0 42 42 0z m69 158c-6-9-19-18-40-27-21-8-29-17-29-32l0-14-42 0c0 24 0 26 0 43 6 30 22 26 35 32l18 8c16 6 23 19 23 38 0 16-3 26-8 31-6 5-19 7-39 7-18 0-30-3-37-7-7-4-21-9-21-24l0-14-43 0 0 14c0 31 14 45 27 55 14 11 39 16 78 16 33 0 56-5 69-16 12-11 26-25 26-55 0-23-11-45-17-55z"/>
<glyph glyph-name="nav-smbok-1" unicode="&#110;" d="M229 225c-4 2-10 4-18 6-8 2-13 3-15 5-2 2-3 3-3 5 0 2 1 4 3 5 3 2 6 3 11 3 5 0 8-1 11-3 2-1 4-4 4-9l17 1c-1 8-3 14-8 18-6 5-13 7-24 7-6 0-11-1-16-3-4-2-7-5-10-8-2-4-3-8-3-12 0-6 2-12 7-16 4-3 10-6 19-8 7-2 11-3 13-4 3-1 5-2 6-3 1-2 2-3 2-5 0-3-2-6-4-8-3-2-7-4-12-4-5 0-9 2-12 4-3 3-5 7-6 12l-16-1c1-10 4-17 10-21 5-5 13-7 23-7 7 0 13 1 18 3 5 2 8 5 11 9 3 4 4 8 4 13 0 5-1 9-3 13-2 3-5 6-9 8z m65-19l-15 55-24 0 0-81 15 0 0 64 16-64 16 0 16 64 0-64 15 0 0 81-24 0z m133 306l-342 0c-47 0-85-38-85-85l0-342c0-47 38-85 85-85l342 0c47 0 85 38 85 85l0 342c0 47-38 85-85 85z m-28-334c0-16-13-29-29-29l-207 0c-8 0-14-6-14-14 0-8 6-14 14-14l218 0c10 0 18-8 18-18 0-10-8-18-18-18l-239 0c-16 0-29 13-29 29l0 284c0 16 13 29 29 29l43 0 0-128c0-2 0-4 2-5 2-3 7-3 10 0 2 2 30 25 30 25 0 0 29-23 31-25 3-3 7-3 10 0 2 1 2 3 2 5l0 128 100 0c16 0 29-13 29-29z"/>
<glyph glyph-name="nav-translation" unicode="&#111;" d="M294 263l-38-114 29 0 9 29 36 0 10-29 30 0-39 114z m4-65l8 24c2 7 4 15 6 22l0 0c2-7 4-15 6-22l8-24z m129 314l-342 0c-47 0-85-38-85-85l0-342c0-47 38-85 85-85l342 0c47 0 85 38 85 85l0 342c0 47-38 85-85 85z m-230-159l0 10-17 0 0-10-38 0 0-18 68 0c-1-13-8-25-19-39-11 18-16 35-16 35l0 1-16-4 0-1c0-1 6-22 20-43-15-16-31-25-31-26l-2 0 9-14 2 0c1 2 17 11 33 27 5-6 11-10 11-10l12-10 0-31-96 0c-2 0-3 2-3 3l0 165c0 2 1 3 3 3l165 0c1 0 3-1 3-3l0-82c0 0-32 0-54 0-12 0-18-10-18-18 0-8 0-17 0-17l-13 9c0 0 25 38 27 55l8 0 0 18z m201-229c0-2-1-3-3-3l-165 0c-1 0-3 1-3 3l0 165c0 1 2 3 3 3l165 0c2 0 3-2 3-3l0-165z"/>
<glyph glyph-name="nav-apply" unicode="&#112;" d="M427 512l-342 0c-47 0-85-38-85-85l0-342c0-47 38-85 85-85l342 0c47 0 85 38 85 85l0 342c0 47-38 85-85 85z m-33-222c-6-6-15-6-21 0l-5 6-27-98c-1-4-4-8-8-10-2 0-170-73-170-73-1-1-3-1-4-1-7 0-12 5-12 12 0 3 1 6 3 8l101 101c3-2 7-2 11-2 16 0 29 13 29 29 0 17-13 30-29 30-16 0-30-13-30-30 0-4 1-8 2-11l-100-100c-2-3-5-4-8-4-7 0-12 5-12 12 0 2 0 3 1 5l73 169c2 4 5 7 9 8l98 27-5 6c-6 5-6 15 0 20 5 6 15 6 20 0l84-83c5-6 5-15 0-21z"/>
<glyph glyph-name="nav-atp-list" unicode="&#113;" d="M427 512l-342 0c-47 0-85-38-85-85l0-342c0-47 38-85 85-85l342 0c47 0 85 38 85 85l0 342c0 47-38 85-85 85z m-214-142l185 0 0-29-185 0z m14-86l0 15 72 0 0-15-29 0 0-70-14 0 0 70z m-99 86l15 0 0 28 14 0 0-28 14 0 0-43 14 0 0-14-14 0 0 14-43 0z m71-100l0-28-85 0 0 28z m-85 57l14 0 0-14-14 0z m199-185l-199 0 0 29 199 0z m71 0l-28 0 0-28-14 0 0 85 42 0 0-14-28 0 0-29 28 0z m14 14l-14 0 0 29 14 0z m0 86l-71 0 0 28 71 0z m-255 128l14 0 0-29-14 0z"/>
<glyph glyph-name="nav-atp-process" unicode="&#114;" d="M427 512l-342 0c-47 0-85-38-85-85l0-342c0-47 38-85 85-85l342 0c47 0 85 38 85 85l0 342c0 47-38 85-85 85z m-32-301l0-71-99 0 0 29-83 0 0-29-99 0 0 71 99 0 0-28 83 0 0 28 42 0 0 94-33 24 0-1-92 0 0-28-99 0 0 71 99 0 0-28 92 0 0-1 40 29 50-36-43-30 0-94 43 0z"/>
<glyph glyph-name="nav-gear" unicode="&#115;" d="M290 260c-21 0-38-17-38-38 0-22 17-39 38-39 22 0 39 17 39 39 0 21-17 38-39 38z m-103 82c0-9-8-17-17-17-10 0-17 8-17 17 0 10 7 17 17 17 9 0 17-7 17-17z m240 170l-342 0c-47 0-85-38-85-85l0-342c0-47 38-85 85-85l342 0c47 0 85 38 85 85l0 342c0 47-38 85-85 85z m-253-226l-8 0c-5 0-9 4-9 9l0 5c0 0-1 1-1 1-2 1-3 2-5 2 0 0 0 0-1 0 0 0-1 0-1 0l-3-3c-2-2-4-3-7-3-2 0-4 1-6 3l-6 5c-1 2-2 4-2 7 0 2 1 4 2 6l4 4c0 0 0 1 0 2-1 1-1 2-2 4 0 1-1 1-1 1l-5 0c-5 0-9 4-9 9l0 8c0 5 4 9 9 9l5 0c0 0 1 1 1 1 1 2 1 3 2 5 0 0 0 1 0 2l-4 3c-3 4-3 9 0 13l6 6c2 1 4 2 6 2 3 0 5-1 7-2l3-4c0 0 1 0 1 0 1 0 1 0 1 0 2 1 3 1 5 2 0 0 1 1 1 1l0 5c0 5 4 9 9 9l8 0c5 0 9-4 9-9l0-5c0 0 0-1 1-1 2-1 3-1 4-2 1 0 1 0 1 0 1 0 1 0 1 0l4 4c2 1 4 2 6 2 3 0 5-1 7-2l6-6c3-4 3-9 0-13l-4-3c0-1-1-2 0-2 0-2 1-3 2-5 0 0 1-1 1-1l5 0c5 0 9-4 9-9l0-8c0-5-4-9-9-9l-5 0c0 0-1 0-1-1-1-2-2-3-2-5-1 0 0-1 0-1l4-4c3-4 3-9 0-13l-6-6c-2-1-4-2-7-2-2 0-4 1-6 2l-4 4c0 0 0 0-1 0 0 0 0 0-1 0-1 0-2-1-4-2-1 0-1-1-1-1l0-5c0-5-4-9-9-9z m224-73c0-7-6-13-13-13l-10 0c-3 0-6-3-7-6-1-2-3-5-4-8-1-3-1-7 1-9l8-7c5-5 5-14 0-19l-12-12c-3-2-6-4-10-4-3 0-6 2-9 4l-7 8c-1 1-3 2-6 2-1 0-2-1-3-1-3-1-6-3-8-4-3-1-6-4-6-7l0-10c0-7-6-13-13-13l-17 0c-7 0-13 6-13 13l0 10c0 3-3 6-6 7-2 1-5 3-8 4-1 0-2 1-4 1-2 0-4-1-5-2l-7-8c-3-2-6-4-9-4-4 0-7 2-10 4l-12 12c-5 5-5 14 0 19l8 7c2 2 2 6 1 9-2 3-3 6-4 8-1 3-4 6-7 6l-10 0c-7 0-13 6-13 13l0 17c0 7 6 13 13 13l10 0c3 0 6 3 7 6 1 2 2 5 4 8 1 3 1 7-1 9l-8 7c-2 3-4 6-4 9 0 4 2 7 4 10l12 12c3 2 6 4 10 4 3 0 6-2 9-4l7-8c1-1 3-2 5-2 2 0 3 1 4 1 3 2 6 3 8 4 3 1 6 4 6 7l0 10c0 7 6 13 13 13l17 0c7 0 13-6 13-13l0-10c0-3 3-6 6-7 2-1 5-2 8-4 1 0 2-1 3-1 3 0 5 1 6 2l7 8c3 2 6 4 9 4 4 0 7-2 10-4l12-12c5-5 5-14 0-19l-8-7c-2-2-2-6-1-9 1-3 3-6 4-8 1-3 4-6 7-6l10 0c7 0 13-6 13-13l0-17z"/>
<glyph glyph-name="nav-type-atp" unicode="&#116;" d="M427 512l-342 0c-47 0-85-38-85-85l0-342c0-47 38-85 85-85l342 0c47 0 85 38 85 85l0 342c0 47-38 85-85 85z m-204-199l108 0c6 0 10-3 10-7 0-4-4-7-10-7l-108 0c-5 0-10 3-10 7 0 4 5 7 10 7z m-10 35c0 4 5 8 10 8l108 0c6 0 10-4 10-8 0-4-4-7-10-7l-108 0c-5 0-10 3-10 7z m-64-206c-19 0-35 16-35 36 0 20 16 35 35 35 20 0 36-15 36-35 0-20-16-36-36-36z m0 185c-19 0-35 16-35 36 0 19 16 35 35 35 20 0 36-16 36-35 0-20-16-36-36-36z m182-213l-108 0c-5 0-10 3-10 7 0 4 5 7 10 7l108 0c6 0 10-3 10-7 0-4-4-7-10-7z m0 42l-108 0c-5 0-10 4-10 8 0 4 5 7 10 7l108 0c6 0 10-3 10-7 0-4-4-8-10-8z m57 43l-165 0c-5 0-10 3-10 7 0 4 5 7 10 7l165 0c6 0 10-3 10-7 0-4-4-7-10-7z m0 185l-165 0c-5 0-10 3-10 7 0 4 5 7 10 7l165 0c6 0 10-3 10-7 0-4-4-7-10-7z"/>
<glyph glyph-name="nav-advantage" unicode="&#117;" d="M256 376c-32 0-63-12-85-35-47-47-47-123 0-170 22-22 53-35 85-35 32 0 62 13 85 35 46 47 46 123 0 170-23 23-53 35-85 35z m-21-184l-61 61 32 33 29-32 79 65 24-24z m192 320l-342 0c-47 0-85-38-85-85l0-342c0-47 38-85 85-85l342 0c47 0 85 38 85 85l0 342c0 47-38 85-85 85z m-71-356c-27-28-64-42-100-42-37 0-73 14-101 42-55 55-55 145 0 201 28 27 64 41 101 41 36 0 73-14 100-41 56-56 56-146 0-201z"/>
<glyph glyph-name="nav-aspects" unicode="&#118;" d="M427 512l-342 0c-47 0-85-38-85-85l0-342c0-47 38-85 85-85l342 0c47 0 85 38 85 85l0 342c0 47-38 85-85 85z m-2-233l-113-62-18 24 124 67c3-9 5-19 7-29z m-155 145c16-2 31-5 46-11l-46-25z m0-68l77 42c9-5 17-12 24-19l-101-55z m0-65l121 67c6-7 11-15 15-23l-129-71-7 8z m-185-37c0 89 69 162 157 170l0-165-80-148c-46 31-77 83-77 143z m171-171c-24 0-48 5-69 15l75 138 92-122c-28-19-61-31-98-31z m120 49l-13 17 43 24c-8-15-18-29-30-41z m46 82l-76-42-17 22 97 54c0-12-2-23-4-34z"/>
<glyph glyph-name="nav-marketing-strategy" unicode="&#119;" d="M160 129c-5 0-9-2-13-5-7-7-7-19 0-25 4-4 8-6 13-6 4 0 9 2 12 6 7 6 7 18 0 25-3 3-8 5-12 5z m-8 287c-4 0-8-2-10-5-6-5-6-15 0-20 2-3 6-5 10-5 4 0 8 2 10 5 6 5 6 15 0 20-2 3-6 5-10 5z m102-81c-23 0-46-10-62-26-35-35-35-90 0-125 16-16 39-25 62-25 24 0 46 9 62 25 35 35 35 90 0 125-16 16-38 26-62 26z m-13-129l-40 39 21 21 19-21 51 42 15-15z m186 306l-342 0c-47 0-85-38-85-85l0-342c0-47 38-85 85-85l342 0c47 0 85 38 85 85l0 342c0 47-38 85-85 85z m-2-358c-6-5-13-8-21-8-8 0-15 3-21 8-8 8-10 19-8 29l-28 12c-5-8-11-16-18-23-21-21-48-31-75-31-17 0-35 4-51 12l-19-25c8-11 8-28-3-38-6-6-14-9-21-9-8 0-16 3-22 9-11 11-11 31 0 42 6 6 14 9 22 9 4 0 9-1 13-3l18 23c-4 3-8 7-12 11-19 18-29 43-31 67l-15 0c-3-11-14-20-27-20-15 0-28 13-28 28 0 16 13 29 28 29 14 0 25-10 28-22l14 0c2 24 12 49 31 68 4 4 8 7 13 10l-31 41c-3-1-6-2-9-2-8 0-15 3-21 9-12 11-12 30 0 42 6 6 13 9 21 9 8 0 15-3 21-9 12-11 12-30 1-42l30-40c15 8 33 13 50 13 3 0 6-1 9-1l0 13c-12 4-20 14-20 27 0 16 13 29 28 29 16 0 29-13 29-29 0-13-10-25-22-27l0-15c16-4 33-12 46-24l36 38c-3 5-5 10-5 16 0 18 16 32 35 32 19 0 34-14 34-32 0-18-15-32-34-32-8 0-14 2-20 6l-36-38c27-31 33-72 19-108l28-13c1 1 1 1 2 2 6 6 13 9 21 9 8 0 15-3 21-9 12-12 12-31 0-43z m-21 30c-2 0-4-1-6-2-3-4-3-9 0-12 2-2 4-3 6-3 2 0 5 1 6 3 4 3 4 8 0 12-1 1-4 2-6 2z"/>
<glyph glyph-name="menu" unicode="&#120;" d="M410 282c7 0 13-3 18-8 5-5 7-11 7-18 0-7-2-13-7-18-6-5-12-8-18-8 0 0-308 0-308 0-6 0-12 3-18 8-5 5-7 11-7 18 0 7 2 13 7 18 5 5 11 8 18 8 0 0 308 0 308 0m-308 51c-6 0-12 2-18 7-5 6-7 12-7 18 0 7 2 13 7 18 5 5 11 8 18 8 0 0 308 0 308 0 7 0 13-3 18-8 5-5 7-11 7-18 0-6-2-12-7-18-6-5-12-7-18-7 0 0-308 0-308 0m308-154c7 0 13-2 18-7 5-6 7-12 7-18 0-7-2-13-7-18-6-5-12-8-18-8 0 0-308 0-308 0-6 0-12 3-18 8-5 5-7 11-7 18 0 6 2 12 7 18 5 5 11 7 18 7 0 0 308 0 308 0"/>
<glyph glyph-name="nav-smbok" unicode="&#121;" d="M258 252c-6 0-11-1-15-3-4-1-7-3-9-6-3-3-5-6-7-9-2-5-3-11-3-18 0-11 3-20 9-26 6-7 14-10 25-10 10 0 18 3 24 10 7 6 10 15 10 26 0 11-4 20-10 27-6 6-14 9-24 9z m14-54c-4-4-9-6-14-6-6 0-10 2-14 6-4 4-6 10-6 18 0 8 2 14 6 18 3 4 8 6 14 6 6 0 10-2 14-6 3-4 5-10 5-18 0-8-2-14-5-18z m-40 95c3 6 5 12 5 18 0 7-1 13-4 18-3 5-7 9-13 11-5 3-13 6-24 8-11 3-18 5-21 8-2 2-3 4-3 7 0 2 1 5 3 7 4 2 9 4 16 4 6 0 11-2 14-4 3-3 5-7 6-13l23 1c0 11-4 19-11 25-7 6-18 9-32 9-9 0-16-1-22-4-6-2-11-6-14-11-3-5-5-10-5-16 0-9 4-16 11-22 4-5 13-8 25-11 9-3 15-4 18-5 4-2 7-3 8-5 2-2 3-4 3-7 0-4-2-8-6-11-4-3-9-4-16-4-7 0-13 1-17 5-4 3-6 9-8 16l-22-2c2-12 6-22 14-28 7-7 18-10 32-10 10 0 18 1 25 4 6 3 11 7 15 12z m-30-75c3 2 5 4 7 6 2 3 2 6 2 9 0 3 0 6-2 9-1 2-3 4-5 5-2 2-5 3-7 3-3 1-7 1-13 1l-28 0 0-70 24 0c9 0 15 0 17 1 4 0 7 1 10 3 2 2 4 4 6 7 1 3 2 6 2 9 0 4-1 8-4 11-2 3-5 5-9 6z m-31 21l8 0c6 0 10 0 12 0 2 0 4-1 5-2 1-2 2-3 2-6 0-2-1-4-2-5-2-1-4-2-6-3-1 0-5 0-10 0l-9 0 0 16z m27-43c-1-1-3-2-5-3-1 0-4 0-9 0l-13 0 0 19 11 0c6 0 10-1 12-1 2-1 4-2 5-4 1-1 1-3 1-5 0-2 0-4-2-6z m145 171l0-88 21 0 0 111-34 0-20-76-21 76-33 0 0-111 21 0 0 88 22-88 21 0z m84 145l-342 0c-47 0-85-38-85-85l0-342c0-47 38-85 85-85l342 0c47 0 85 38 85 85l0 342c0 47-38 85-85 85z m-28-334c0-16-13-29-29-29l-207 0c-8 0-14-6-14-14 0-8 6-14 14-14l218 0c10 0 18-8 18-18 0-10-8-18-18-18l-239 0c-16 0-29 13-29 29l0 284c0 16 13 29 29 29l228 0c16 0 29-13 29-29z m-35 73l-19 0-28-31 0 31-14 0 0-70 14 0 0 21 11 12 19-33 19 0-28 43z"/>
<glyph glyph-name="nav-expert-level" unicode="&#67;" d="M427 512l-342 0c-47 0-85-38-85-85l0-342c0-47 38-85 85-85l342 0c47 0 85 38 85 85l0 342c0 47-38 85-85 85z m-260-341l-34-1c-12 21-19 46-19 72 0 78 63 142 142 142 70 0 128-51 140-118l-32 11c-14 45-57 79-108 79-63 0-114-51-114-114 0-27 9-52 25-71z m212 0l-34 0c8 10 14 22 19 34l29 0c-3-12-8-24-14-34z m51 48l-172 1c-2 0-3 0-4 0-2 0-3 0-5 1-9 1-17 6-23 14-5 8-7 18-6 27 1 4 2 8 4 12 7 12 19 19 32 19 2 0 4 0 6 0 1 0 3-1 4-1 0 0 1 0 1 0 1 0 2 0 3 0l163-52c5-2 8-7 7-12-1-5-5-9-10-9z"/>
<glyph glyph-name="nav-hierarchy" unicode="&#68;" d="M239 188l-17 0 0-69 68 0 0 69z m51 153l0 52-68 0 0-69 68 0z m-188-153l0-69 69 0 0 69z m325 324l-342 0c-47 0-85-38-85-85l0-342c0-47 38-85 85-85l342 0c47 0 85 38 85 85l0 342c0 47-38 85-85 85z m0-390c0-15-9-20-17-20l-69 0c-11 0-17 9-17 17l0 69c1 10 7 16 17 17l17 0 0 34-85 0 0-34 17 0c11 0 17-9 17-17l0-69c0-11-4-17-17-17l-68 0c-14 0-17 10-17 17l0 69c0 8 7 16 17 17l17 0 0 34-85 0 0-34 17 0c10 0 16-8 17-17l0-69c0-10-7-17-17-17l-67 0c-11 0-19 9-19 20l0 66c0 8 8 17 19 17l15 0 0 34c0 7 5 17 10 22 5 5 18 12 25 12l85 0 0 34-13 0c-14 0-22 5-21 17l0 69c0 7 6 16 17 17l68 0c11-1 17-6 17-17l0-69c0-12-6-16-17-17l-17 0 0-34 85 0c7 0 20-7 25-12 5-5 7-11 7-18l3-38 17 0c8 0 17-9 17-19l0-64z m-17 66l-69 0 0-69 69 0z"/>
<glyph glyph-name="nav-practitioner-level" unicode="&#69;" d="M427 512l-342 0c-47 0-85-38-85-85l0-342c0-47 38-85 85-85l342 0c47 0 85 38 85 85l0 342c0 47-38 85-85 85z m-260-341l-34-1c-12 21-19 46-19 72 0 78 63 142 142 142 29 0 56-9 79-24l-29-16c-15 7-32 12-50 12-63 0-114-51-114-114 0-27 9-52 25-71z m212 0l-34 0c16 19 25 44 25 71 0 17-4 34-11 49l20 22c12-21 19-45 19-71 0-26-7-50-19-71z m23 187l-118-126c-1-1-2-2-3-2-1-1-2-2-3-3-7-5-14-8-22-8-2 0-3 1-5 1-9 1-18 6-24 14-2 3-4 7-5 11-6 14-1 31 11 40 1 1 3 2 4 3 1 1 2 2 3 2l149 84c2 1 3 2 5 2 3 0 6-2 8-5 3-4 3-10 0-13z"/>
<glyph glyph-name="nav-professional-level" unicode="&#70;" d="M427 512l-342 0c-47 0-85-38-85-85l0-342c0-47 38-85 85-85l342 0c47 0 85 38 85 85l0 342c0 47-38 85-85 85z m-294-342c-12 21-19 46-19 72 0 36 14 70 36 95l16-26c-15-20-24-43-24-69 0-27 9-52 25-71z m160 81c-1-9-6-18-14-24-3-2-7-4-11-6-4-1-8-2-12-2-11 0-22 5-28 14-1 1-2 2-3 4-1 0-2 1-3 2l-84 149c-3 5-2 10 2 13 2 2 5 3 7 3 3 0 5-1 7-3l126-117c1-1 2-2 3-3 1-1 2-2 3-3 6-8 8-17 7-27z m86-80l-34 0c16 19 25 44 25 71 0 63-51 114-114 114-10 0-19-2-28-4l-24 22c16 6 34 10 52 10 79 0 142-64 142-142 0-26-7-50-19-71z"/>
<glyph glyph-name="for-atp" unicode="&#71;" d="M498 484l-213 0c-8 0-15-7-15-15l0-85c8-8 16-24 21-36l4 2c1 1 3 5 4 6l0 99 185 0 0-242-185 0-1 27-28-12 0-29c0-7 7-14 15-14l213 0c7 0 14 8 14 16l0 267c0 7-7 16-14 16z m-163-197l17 11c0 0 0 0 0 0 8 8 9 21 4 31l88 61-6 9-89-62c-4 3-9 4-14 5-7 0-14-3-19-8 0 0 0 0 0 0l-3-2-30-21 0 9c-5 66-80 65-80 65l-32 0-28-46-27 46-31 0c-85-2-85-72-85-72l0-142 3 1c0 0 0-1 0-1 0-14 11-26 25-26 14 0 25 12 25 26 0 0 0 1 0 1l4-1 0 142 14 0 0-313 57 0 0 156 28 0 0-156 57 0 0 313 15 0 0-43c0 0 0-14 0-14 0-14 17-17 30-17 5 0 8 1 12 3l0 0 43 29z m-135 167c0 32-26 58-57 58-32 0-57-26-57-58 0-32 25-58 57-58 31 0 57 26 57 58z"/>
<glyph glyph-name="for-individuals" unicode="&#72;" d="M455 143c-23 29-51 48-91 59l-37-127c0-12-10-22-22-22-12 0-22 10-22 22l0 101c0 15-12 27-27 27-15 0-27-12-27-27l0-101c0-12-10-22-22-22-12 0-22 10-22 22l-37 127c-40-11-68-30-91-59-9-11-14-35-14-47 0-3 0-7 0-11l0-42c0-24 19-43 43-43l340 0c24 0 43 19 43 43l0 42c0 4 0 8 0 11 0 12-5 36-14 47z m-314 256c0-62 40-154 115-154 74 0 115 92 115 154 0 62-52 113-115 113-63 0-115-51-115-113z"/>
<glyph glyph-name="for-organizations" unicode="&#73;" d="M498 356c0-19-15-35-34-35-19 0-34 16-34 35 0 18 15 34 34 34 19 0 34-16 34-34z m-414 0c0-19-15-35-34-35-19 0-34 16-34 35 0 18 15 34 34 34 19 0 34-16 34-34z m104 27c0-23-18-41-41-41-23 0-42 18-42 41 0 23 19 42 42 42 23 0 41-19 41-42z m224 0c0-23-19-41-41-41-23 0-42 18-42 41 0 23 19 42 42 42 22 0 41-19 41-42z m-97 46c0-32-25-58-57-58-31 0-57 26-57 58 0 31 26 57 57 57 32 0 57-26 57-57z m-250-131l-30 0c0 0-27 5-35-9l5-77c0 0-1-4 16-5l4-84c0 0 1-9 5-9l38 0c0 0 4 4 5 10 0 5 5 83 5 83 0 0 1 0 2 0l-7 90c-3 0-5 1-8 1z m100 20l-36 0c0 0-34 4-43-13l1-12 6-85c2-1 7-3 18-4l5-104c0 0 1-13 6-13l46 0c0 0 6 7 6 14 0 5 4 69 6 93l-8 123c-2 1-5 1-7 1z m68 20c0 0-30 4-48-7l9-148c4-1 9-1 15-2l6-141c0 0 2-14 9-14l63 0c0 0 8 6 9 15 0 9 8 140 8 140 0 0 8-1 15 1l6 145c-9 6-24 11-42 11l-50 0z m119-20c0 0-6 1-13 0l-5-113c0-1 1-1 1-1l5-104c0 0 1-13 6-13l46 0c0 0 5 7 6 14 0 6 6 102 6 102 0 0 6 0 12 1l4 105c-7 4-18 9-31 9z m127-20l-30 0c0 0-8 1-16 0l-4-90c2-1 4-1 6-1l3-84c0 0 1-9 6-9l38 0c0 0 4 4 5 10 0 5 5 83 5 83 0 0 14-1 16 5l4 76c0 0-13 10-33 10z"/>
<glyph glyph-name="earn-big" unicode="&#74;" d="M203 353c0 0-217-286 65-292 0 0 278 0 7 306-50 4-72-14-72-14z m70-139c30-11 42-25 42-48 0-23-16-42-45-47l0-19-28 0 0 17c-14 1-32 5-42 11l8 30c11-6 27-11 43-11 15 0 25 5 25 15 0 10-8 16-27 23-27 9-48 22-48 47 0 22 12 40 41 45l0 22 28 0 0-20c14-1 29-4 38-8l-7-29c-7 2-19 8-37 8-17 0-22-7-22-14 0-8 9-14 31-22z m-2 166c0 0 19 59-3 61-19 2-48 2-77-18 9-12 20-23 20-23l-25 19c-4-3-7-6-11-10l29-42c0 0 33 18 67 13z m-214-195l0 18c0 5 21 16 21 31 0 3-2 8-3 8l-18 0 0 28 14 0c-1 0-2 10-2 16 0 27 20 44 49 44 12 0 21-3 26-6l-6-25c-4 2-10 4-18 4-15 0-20-8-20-19 0-5 1-14 2-14l26 0 0-5c14 23 23 44 33 61-12 17-26 36-45 57-39 4-56-10-56-10 0 0-163-222 48-229-2 13-2 27 0 41z m56 209c0 0 15 45-2 47-15 2-37 2-60-14 7-9 15-18 15-18l-19 15c-3-2-6-5-8-8l22-32c0 0 26 14 52 10z m305-11c-40 4-57-10-57-10 0 0-15-17-30-44 5-7 10-16 14-16l29 0 15-34c4-9 7-23 9-23l1 0c3 0 6 15 9 23l15 34 35 0-37-71 20 0 0-14-29 0 0-15 29 0 0-14-29 0 0-28-2 0 0-25c1 0 1-1 2-1 3-3 219-3 6 238z m-4 11c0 0 15 45-2 47-15 2-37 2-60-14 7-9 15-18 15-18l-19 15c-3-2-6-5-9-8l23-32c0 0 26 14 52 10z"/>
<glyph glyph-name="easy-portal" unicode="&#75;" d="M185 100c12 0 22-14 22-25 0-12-10-18-22-18l-85 0c-15 0-29-14-29-29 0-14 17-28 32-28l306 0c15 0 32 14 32 28 0 15-14 29-29 29l-85 0c-12 0-22 6-22 18 0 11 10 25 22 25l142 0c24 0 43 15 43 39l0 330c0 24-19 43-44 43l-424 0c-24 0-44-19-44-43l0-330c0-24 19-39 43-39z m42 64c0 19 16 35 36 35 20 0 36-16 36-35 0-20-16-36-36-36-20 0-36 16-36 36z m-170 291l398 0 0-213-398 0z"/>
<glyph glyph-name="get-students" unicode="&#76;" d="M182 463c0 27-22 49-49 49-28 0-50-22-50-49 0-27 22-49 50-49 27 0 49 22 49 49z m17-179l0-56 128 0 0-228 57 0 0 228 128 0 0 56z m74-85l-142 0 14 100 114 0c17 0 37 9 37 26 0 17-20 30-37 30 0 0 6 1 6 1l-115 0 6 38c0 4-3 4-7 4l-54 0c-4 0-7 1-7-3l-85-240c0-4 0-13 14-13l182 0 0-142 85 0 0 185c0 4 3 14-11 14z m-259-114l71 0 0-85 29 0 0 85 71 0 0 43-171 0z m299 256l156 0 0-42-156 0z m32 15l156 0-1 42-154 0z m-4 99l157 0 0-43-157 0z m-28 57l156 0 0-43-156 0z"/>
<glyph glyph-name="get-trainers" unicode="&#77;" d="M399 435c0 43-35 77-78 77-42 0-77-34-77-77 0-42 35-76 77-76 43 0 78 34 78 76z m-58-335l-42 0 0-15-71 0 0-85 199 0 0 85-86 0z m56 241l-43 0-28-57-43 57-42 0c0 0-99 6-113-81l0-12-39 27-4 3 0 0c-8 4-12 7-16 9l-56 219-14-5 55-213c-6-1-12-4-17-9-14-13-13-36 0-50 0 0 0-1 0-1l0 0 22-14 31-19 58-39 1 0c4-2 10-3 16-3 18 0 34 15 34 33 0 0 0 0 0 0l0 60 29-4 0-142 199 0 0 142 13 0 1-171c0-2 0-4 0-5 0-19 17-35 35-35 19 0 36 17 36 35 0 2 0 3 0 5l0 189c0 0 0 81-115 81z m-71-170l-29 83 29 30 28-28z"/>
<glyph glyph-name="incentive" unicode="&#78;" d="M368 188c-4 0-6-2-8-6-1-4-2-10-2-18 0-8 1-14 2-18 2-4 4-6 8-6 6 0 9 8 9 24 0 16-3 24-9 24z m-90 33c0 16-3 24-9 24-4 0-6-2-8-6-1-4-2-10-2-18 0-9 1-15 2-19 2-4 4-6 8-6 6 0 9 8 9 25z m206 39l-159 156c-18 19-43 25-67 25l-30 0 0-105c0-27-23-48-49-48-26 0-51 21-51 48 0 20 14 37 28 44l0-44c0-9 13-16 22-16 9 0 21 7 21 16l0 111c0 35-33 65-68 65l-64 0c-35 0-67-30-67-65l0-48c0-9 5-16 14-16 9 0 14 7 14 16l0 48c0 17 21 37 39 37l64 0c17 0 31-15 31-43l-91 0 0-185c0-24 7-49 26-67l158-160c37-37 97-37 135 0l95 96c37 37 37 98-1 135z m-240-72c-6 7-9 18-9 33 0 29 11 44 33 44 11 0 20-4 25-12 6-7 9-18 9-32 0-15-3-26-8-34-6-7-15-11-26-11-10 0-19 4-24 12z m46-74l-23 0 78 142 24 0z m103 17c-6-7-15-11-26-11-10 0-19 4-24 11-6 8-9 19-9 33 0 30 11 44 33 44 11 0 20-3 25-11 6-8 9-19 9-33 0-14-3-26-8-33z"/>
<glyph glyph-name="increase-portfolio" unicode="&#79;" d="M299 128l-86 0 0 42-213 117 0-287 512 0 0 276-213-110z m57 284l0 100-200 0 0-100-156 0 0-56 213-106 0 34 86 0 0-40 213 116 0 52z m-29 15l-142 0 0 57 142 0z"/>
<glyph glyph-name="save-cost" unicode="&#80;" d="M497 199c-9 4-19 2-29-1-7-2-14-6-20-9-2 16-8 23-21 23-14 1-26-2-36-11-4-3-5-2-8 1-7 9-17 13-28 10-5-1-10-3-14-5-16-7-30-17-45-26-4-2-7-4-11-7 3-1 7-1 10-1 10 0 20-1 30-1 10-1 21-2 30-5 13-6 19-15 21-28 1-14-3-26-14-34-13-9-28-13-43-13-27 0-53 0-80 0-9 0-17 2-24 5-18 7-33 18-46 31 2 1 4-1 5-1 20-8 41-14 62-14 29-1 57-1 85 0 9 0 18 1 26 6 8 5 10 10 9 18-2 8-7 11-14 12-11 3-22 3-33 3-11 0-22 0-34 2-21 5-42 12-60 26-16 12-33 23-50 34-23 15-46 17-71 7-31-12-61-26-92-40-3-2-2-3-1-5 18-40 36-80 53-120 1-3 2-3 5-1 9 6 18 11 27 17 13 9 27 10 41 2 32-17 64-33 97-50 11-6 22-10 35-12 16-1 30 4 44 13 63 38 123 80 185 122 6 4 13 9 18 16 11 13 7 29-9 36z m-228 39c45 1 81 38 80 82 0 45-36 82-81 81-44 0-80-36-80-81 0-46 37-82 81-82z m-8 118c1 1 17 2 19 1 1-1 1-3 1-4 0-22 0-44 0-66 0-3-1-4-4-4-5 0-11 0-16 0-4 0-5 1-5 5 1 13 0 26 1 39 0 4-1 6-5 5-5 0-9 0-13 0 0 1-1 1-1 2 8 7 15 14 23 22z m54 72c20-8 36-22 49-39 1-2 3-3 5-3 30 3 53 26 53 56 1 26-16 48-42 56-38 11-77-25-69-64 0-3 1-4 4-6z m42 36c2 2 3 4 7 5 11 1 11 1 11-11 0-12-1-23 0-35 0-4-1-6-6-6-11 0-11 0-11 12 0 6-1 11 0 17 0 5-2 6-6 6-2-1-4 0-6 0 0 0 0 1 0 1 3 4 7 8 11 11z"/>
<glyph glyph-name="save-time" unicode="&#81;" d="M162 485l-3 3c-16 17-38 24-60 24-22 0-43-7-60-24-32-33-33-86-2-119 24 54 69 96 125 116z m311-6c-17 17-38 26-60 26-22 0-44-9-60-26l-3-3c56-19 101-62 125-116 31 34 30 87-2 119z m-94-223l-101 0 0 104c0 12-13 23-25 23-13 0-25-10-25-22l0-148 0 0 42 0 0-1 105 0c13 0 25 10 25 22 0 13-8 22-21 22z m31 141c-42 43-98 65-154 65-56 0-112-22-154-65-85-86-85-226 0-313 1 0 1-1 2-1l-55-56c0 0-2-20 25-26l58 58c37-26 80-39 124-39 44 0 87 13 124 39l58-58c28-2 25 26 25 26l-55 56c1 0 1 1 2 1 85 87 85 227 0 313z m-38-273c0 0-1-1-2-2l-9-9-12-8c-27-20-60-30-93-30-33 0-66 10-93 30l-12 8-9 9c-1 1-2 2-2 2-31 32-47 73-47 117 0 44 17 86 47 117 31 31 72 48 116 48 44 0 85-17 115-48 31-31 48-73 48-117 0-44-16-86-47-117z"/>
<glyph glyph-name="training-key-cert" unicode="&#82;" d="M434 277l-166-103-163 103-13-88c0 0 0 0 0 0-2-3-3-6-3-10 0-31 131-127 173-127 42 0 188 96 188 127 0 3-1 7-2 17z m91 90l-255 84-228-76c-3 0-6-1-9-3-2-1-4-4-5-8-1-15-15-192-15-192l15-53 15 53-6 182 232-149z m-273-11l-216 0 23 14 190 0c6 7 8 9 15 9 9 0 16-5 16-12 0-7-7-14-16-14-5 0-9 3-12 3z"/>
<glyph glyph-name="wide-acceptance" unicode="&#83;" d="M509 239l-30 48 18 54c3 7 0 15-7 19l-49 28-9 56c-1 8-7 13-15 14l-56 2-34 45c-5 6-13 8-20 5l-51-24-51 24c-7 3-15 1-20-5l-34-45-56-2c-8-1-14-6-15-14l-9-56-49-28c-7-4-10-12-7-19l18-54-31-48c-4-7-3-15 3-20l41-40-5-56c-1-8 4-15 12-17l54-16 22-52c3-7 10-11 18-9l55 11 44-36c3-2 6-4 10-4 4 0 7 2 10 4l44 36 55-11c7-2 15 2 18 9l22 52 54 16c8 2 12 9 12 17l-5 56 41 40c6 5 7 13 2 20z m-253-182c-110 0-199 89-199 199 0 110 89 199 199 199 110 0 199-89 199-199 0-110-89-199-199-199z m0 370c-94 0-171-77-171-171 0-94 77-170 171-170 94 0 171 76 171 170 0 94-77 171-171 171z m125-98l-121-176c-5-6-12-11-19-11-7 0-15 4-20 9l-88 87c-7 6-7 16 0 22l21 22c7 6 16 6 22 0l58-57 96 138c4 7 14 9 21 4l26-17c7-5 9-14 4-21z"/>
<glyph glyph-name="for-company" unicode="&#84;" d="M480 32l0 288-224 0 0 192-224 0 0-480-32 0 0-32 512 0 0 32z m-416 448l64 0 0-64-64 0z m0-96l64 0 0-64-64 0z m0-96l64 0 0-64-64 0z m0-96l64 0 0-64-64 0z m128-160l-96 0 0 64 96 0z m32 96l-64 0 0 64 64 0z m0 96l-64 0 0 64 64 0z m0 96l-64 0 0 64 64 0z m0 96l-64 0 0 64 64 0z m64-128l64 0 0-64-64 0z m0-96l64 0 0-64-64 0z m128-160l-96 0 0 64 96 0z m32 96l-64 0 0 64 64 0z m0 96l-64 0 0 64 64 0z"/>
<glyph glyph-name="for-university" unicode="&#85;" d="M476 71l-33 0 0 28-371 0 0-28-32 0 0-27-25 0 0-28 485 0 0 28-24 0z m-352 50l0 141 16 0 0 18c0 12-9 21-20 21l-43 0c-12 0-21-9-21-21l0-18 17 0 0-141z m319 0l0 141 17 0 0 18c0 12-9 21-20 21l-43 0c-12 0-21-9-21-21l0-18 18 0 0-141z m-160 0l0 141 17 0 0 18c0 12-9 21-20 21l-43 0c-12 0-21-9-21-21l0-18 16 0 0-141z m-8 371c-12 6-26 6-38 0l-215-119c-13-8-22-23-22-38l0-14 512 0 0 14c0 15-9 30-22 38z m-155-129c-3 0-7 2-7 6-1 3 0 7 3 9l109 60c19 10 43 10 62 0l108-60c4-2 5-6 4-9-1-3-4-6-7-6l-272 0z"/>
<glyph glyph-name="announce" unicode="&#86;" d="M492 386c-3 0-6-1-10-2l-75-29c-5 5-11 8-18 11l-344 124c-5 2-10 3-14 3-18 0-31-13-31-34l0-340c0-20 13-33 30-33 5 0 10 1 15 3l219 83c2-5 5-12 9-18 10-17 32-34 64-34 0 0 1 0 1 0 1 0 2 0 3 0 0-1 0-3 1-4l49-91c4-7 14-8 20-2l58 54c7 6 8 17 3 24l-22 43c-3 9-6 22-8 31l-5 37c0 7-1 17-1 23l46-18c4-1 7-2 10-2 12 0 20 9 20 23l0 125c0 14-8 23-20 23z m-444 52l325-118c1 0 3-1 5-3-1-2-1-4-1-5l0-23c0-5 2-11 4-16-3-4-6-7-9-8l-324-124z m252-267c-3 4-5 9-6 12l33 13 6-44c-18 1-26 10-33 19z"/>
<glyph glyph-name="buy-smbok" unicode="&#87;" d="M509 441c-3 0-14 0-17 0-4 0-5-3-5-6 0-35 0-250 0-327 0-10-9-10-13-10-176 3-218-54-218-54 0 0-43 57-219 54-4 0-13 0-13 10 0 77 0 292 0 327 0 3 0 6-5 6-2 0-12 0-14 0-4 0-5-3-5-7 0-88 0-323 0-357 0-4 2-3 6-3 31 2 176-3 223-46l54 0c60 57 192 48 223 46 4 0 6-1 6 3 0 34 0 269 0 357 0 4 0 7-3 7z m-446-318c17 0 91 1 191-55 100 56 177 55 194 55 16 0 21 10 21 10 0 0 0 330 0 345 0 14-10 11-10 11-149-2-202-75-202-75 0 0-54 73-203 75 0 0-11 3-11-11 0-15 0-345 0-345 0 0 4-10 20-10z m179 261l28 0 0-284-28 0z"/>
<glyph glyph-name="generate-vouchers" unicode="&#88;" d="M512 349l0 40c0 18-14 33-32 33l-32 0c0-18-14-33-32-33-18 0-32 15-32 33l-45 0c0-18-14-33-32-33-17 0-32 15-32 33l-45 0c0-18-14-33-32-33-17 0-32 15-32 33l-44 0c0-18-15-33-32-33-18 0-32 15-32 33l-26 0c-18 0-32-15-32-33l0-40c18 0 32-15 32-33 0-19-14-33-32-33l0-60c18 0 32-15 32-33 0-19-14-34-32-34l0-33c0-18 14-33 32-33l26 0c0 0 0 0 0 0 0 18 14 33 32 33 17 0 32-15 32-33 0 0 0 0 0 0l44 0c0 0 0 0 0 0 0 18 15 33 32 33 18 0 32-15 32-33 0 0 0 0 0 0l45 0c0 0 0 0 0 0 0 18 15 33 32 33 18 0 32-15 32-33 0 0 0 0 0 0l45 0c0 0 0 0 0 0 0 18 14 33 32 33 18 0 32-15 32-33 0 0 0 0 0 0l32 0c18 0 32 15 32 33l0 33c-18 0-32 15-32 34 0 18 14 33 32 33l0 60c-18 0-32 14-32 33 0 18 14 33 32 33z m-77-126l-358 0 0 28 358 0z m0 57l-358 0 0 28 358 0z"/>
<glyph glyph-name="manage-finances" unicode="&#89;" d="M334 234l141 177 32-32 5 108-100-19 35-21-118-135-135 106-194-148 0-74 194 148z m-334-92l114 0 0-114-114 0z m142 114l100 0 0-228-100 0z m128-43l100 0 0-185-100 0z m128 71l114 0 0-256-114 0z"/>
<glyph glyph-name="enhance-and-share" unicode="&#90;" d="M448 177l0 0c0 0 0 1 0 1 0 0 0-1 0-1z m-329 89c4-3 9-5 14-7 2 0 3-1 2-4 0-5 0-10-1-15-2-5-1-7 5-8 3-1 6-2 9-2 2-1 3 0 4 2 2 4 4 8 6 12 3 8 4 8 12 7 5 0 10 1 13-1 3-2 4-7 5-12 5-11 4-11 18-9 3 1 3 2 3 4 1 6 1 12 1 18 0 3 1 4 4 5 5 1 9 3 14 5 2 1 3 1 5-1 4-5 9-10 14-15 1-1 2-2 4 0 3 2 7 4 10 5 2 1 2 2 1 4-2 4-3 9-5 13-3 8-3 8 4 14 3 3 6 7 9 8 4 0 8-3 12-5 13-6 13-6 20 5 2 2 2 3 0 5-5 5-9 9-14 14-2 2-2 3-1 5 3 4 5 9 7 14 1 2 2 2 4 2 4 0 7-1 11-1 4 0 10-2 13 1 2 2 2 8 3 12 1 2 0 3-2 4-6 2-12 5-19 8-2 1-3 2-2 4 1 5 1 10 1 15 0 2 0 3 3 4 5 2 10 4 15 5 7 2 7 2 6 9 0 2-1 4-1 6 0 3-2 4-4 4-7 0-13 0-20 0-2 0-3 1-4 3-2 5-4 10-6 15 0 1 0 2 1 4 5 4 11 8 16 13 0 0 1 1 1 1 1 1 0 2 0 3-1 2-3 4-4 6 0 1 0 1-1 2-2 4-4 4-8 2-4-2-8-3-11-4-1 0-1 0-1 0-7-3-7-3-12 2-3 3-6 6-9 9-1 1-1 2-1 3 3 5 5 9 7 13 1 3 5 6 3 9-1 2-5 3-7 5-1 1-2 2-3 2-2 2-3 2-5 0-3-3-6-6-9-8-3-3-5-6-8-7-3 0-6 3-9 4 0 0 0 0 0 0-4 2-9 2-10 5-2 4-1 8 0 12 1 14 0 15-14 16 0 0 0 0 0 0-2 1-2 0-3-1-3-6-6-12-9-18-1-2-2-4-5-3-5 1-10 1-15 1-2 0-3 0-4 2-2 5-4 10-5 14-3 7-3 7-10 7-10-1-10-1-10-10 0-5 0-10-1-15 0-2-1-2-2-3-6-1-11-3-16-5-2-1-3 0-4 1-5 4-9 9-13 14-2 2-4 3-7 1-3-2-6-4-9-5-2-1-2-3-1-4 2-5 3-11 6-16 2-3 2-6-2-9-4-2-7-5-10-8-2-2-3-2-5-1-3 2-7 3-11 5-11 5-11 4-18-6-2-3-1-5 1-7 5-4 9-9 14-13 1-1 1-2 0-4-3-4-5-9-7-14-1-1-1-2-4-2-6 0-11 0-17 1-7 0-7 0-8-6-1-2-2-5-2-7-1-2-1-3 1-3 5-3 10-6 15-8 7-3 8-3 7-10 0-4 0-8-1-13-6-2-12-5-19-7-4-1-8-2-5-7 0 0 0-1 0-1 0-8 1-10 10-10 0 0 0 0 1 0 4 0 9 0 14-1 3 1 4 0 4-3 1-5 4-9 6-14 1-2 0-2-1-4-5-4-10-8-15-12-1-1-4-2-2-4 2-4 4-7 6-11 1-2 3-2 4-1 7 2 13 4 19 7 2 0 4 1 6-1 3-5 7-8 11-12 2-1 1-3 1-4-4-6-6-12-10-18-1-2-1-3 1-4 1-1 2-2 3-2l0 0c1-1 4-2 5-4 2-2 4-2 6 0 2 1 3 2 4 3 4 3 8 7 11 10 2 2 4 2 6 1z m-36 106c0 49 44 89 96 89 52 0 95-41 95-91-1-51-44-91-97-91-53 0-95 42-94 93z m244 126c0 0 41-67 43-100 4-52 0-85 0-85-4-14-18-40-27-51 0-1 0-1-1-2 0 0 0 0 0 0-2-3-4-5-6-7-4-5-8-9-11-13-14-14-30-28-45-42-15-15-30-29-42-46-14-21-25-43-29-67-3-12-3-24-4-36 0-1 0-1 0-1 0-12-1-24 0-36l0 0c0-4 0-8 0-12 0 0 1 0 1 0 7 0 13 1 20 0 1 0 3 0 4 0 7 1 14 1 20 1 3 0 5 0 7 0 6 0 13 1 19 0 6 1 6 1 6 6 0 3 0 6 0 9 0 1 0 2 0 2 0 1 0 1 0 2 1 2 0 5 0 8 0 5 0 11 1 16 2 7 8 15 18 14 7 0 14-1 21-2 9-2 19-3 28-6 4 0 7-1 11-2 4-1 9-2 13-2 5-1 10-2 15-2 5-1 9-2 14-2 6 0 12 0 19 1 1-1 1 0 2 0 0 0 1 0 1 0 3 1 5 1 8 2l0 0c1 0 2 0 2 1 2 1 4 1 6 3 1 0 2 2 3 2 0 0 1 1 1 2 3 1 4 4 5 6 2 5 2 9 1 14-1 2-1 5-2 8 0 2-1 5-2 8 0 2-1 4-1 6 0 0 0 1 0 2 0 1 0 2 0 3-1 2 1 5 1 8 0 0 1 1 0 1 1 0 1 1 1 1 0 1 1 1 1 1l0 0c0 1 0 1 0 1 1 1 3 3 4 4 1 1 1 1 1 2 0 0 0 0 1 0 5 5 6 12 0 18 0 0 0 0 0 1 0 3 2 5 4 8 2 4 3 9 0 12-3 3-5 7-7 10 0 1 0 1 0 1 0 0 0 0-1 0 0 1 0 1 0 1-1 1-1 1 0 2-1 0-1 1-1 1 0 1 0 2 0 4 0 2 1 5 2 7 4 5 10 8 16 10 3 1 7 3 10 6 5 4 7 9 5 15 0 4-2 7-4 11-5 9-12 17-18 26-7 9-14 19-18 30-1 2-1 4 0 6 2 8 3 16 4 25 1 5 1 11 2 17-1 2-1 4 0 6-1 1-1 2 0 3-1 1-1 3 0 4l0 0c-1 3-1 6-1 9-1 1-1 2-1 3l0 0c0 1 0 1 0 2 0 1 0 1 0 2-2 14-6 28-11 41-5 10-10 20-16 30-1 1-2 2-3 3 0 0 0 0-1 1 0 0 0 0 0 1-2 2-4 4-5 6-1 0-1 1-1 1-1 1-1 1-1 1 0 0-1 1-1 1 0 0 0 0 0 0-2 2-4 4-5 6 0 0-1 0-1 1 0 0-1 0 0 0-1 1-1 1-2 1 0 0 0 1 0 1-2 2-4 3-5 5-1 0-1 0-1 0 0 1-1 1-1 1 0 1-1 1-1 1-1 1-2 2-3 3-5 5-11 9-17 13-4 3-8 5-11 7-8 5-16 9-24 12-3 2-7 3-10 4"/>
<glyph glyph-name="access-to-smstudy" unicode="&#48;" d="M273 161l31-32c10-10 27-10 37 0 10 11 10 27 0 38l-31 31 31 31c0 0-117 51-122 52-3 1-5 2-8 2-13 0-23-10-23-22 0-3 1-6 2-9 2-4 52-123 52-123z m-273-118c0-24 19-43 43-43l426 0c24 0 43 19 43 43l0 426c0 24-19 43-43 43l-426 0c-24 0-43-19-43-43z m71 327l370 0c13 0 28-16 28-29l0-270c0-13-15-28-28-28l-370 0c-13 0-28 15-28 28l0 270c0 13 15 29 28 29z m-18 61c0 15 12 27 27 27 15 0 27-12 27-27 0-14-12-26-27-26-15 0-27 12-27 26z m96 0c0 15 12 27 27 27 15 0 27-12 27-27 0-14-12-26-27-26-15 0-27 12-27 26z m96 0c0 15 12 27 27 27 15 0 27-12 27-27 0-14-12-26-27-26-15 0-27 12-27 26z"/>
<glyph glyph-name="sequoia" unicode="&#49;" d="M216 274c2 2 1 4 1 6-2 4-6 8 1 12 1 1-1 4-2 5-5 6-10 13-2 20 2 2 1 4 0 5-2 2-3 4-4 6-4 7-4 13 3 17 6 3 7 7 4 13-1 2-2 5-3 8-1 3-3 7 0 9 3 4 2 6 0 9-1 2-1 4-1 6-1 6 10 7 4 14-4 5-1 10 0 15 1 4-1 8 4 10 5 2 5-5 8-7 4 3 4 7 3 11-2 5-3 10-3 15-1 4 1 7 5 5 3-1 5-1 5 2-2 12 8 16 16 21 3 2 4 3 2 6-1 2-2 5-1 8 1 10 5 12 15 6 1 7 8 9 11 14 1 3 10 2 14-1 4-4 3-7 0-10-2-2-3-3-5-5-9-7-11-18-15-28-1-5 1-7 7-6 2 1 3 1 4 1 3 0 4-1 3-3-1-4-4-6-6-9-4-5-7-9-1-15 3-4-1-6-3-9-2-3-5-6 1-7 4-1 4-4 3-6-1-3-2-6-3-9-1-3 0-6 4-7 11-5 11-6 5-15 0-1-1-3-2-4-1-1-4-3-2-5 2-2 3 1 5 2 2 1 4 3 6 1 2-2 2-4 1-7-2-4-6-7-9-10-3-4-10-7-8-13 2-6 9-3 14-3 2 0 4 0 6-1 6-1 7-6 3-11-3-3-7-5-11-7-3-2-6-4-8-6-2-1-3-3-2-6 1-2 3-2 5-2 5 1 7-1 6-5-1-5 7-7 3-13-3-3-7-6-10-9-1-2-3-3-3-5 1-2 3-1 4-1 4-1 5-5 2-7-8-4-10-13-16-19-4-4-4-7-1-10 2-2 4-5 5-7 1-2 2-4 4-3 3 0 3 2 3 4 2 4 2 9 1 13 0 3-1 5 0 8 0 2 0 5 3 6 2 1 4-1 5-2 6-5 6-5 8 2 1 2 1 5 2 6 3 3 6 3 8 2 3-1 4-3 4-6 0-7-3-14-3-22 3-1 4 1 5 3 2 4 4 9 5 15 1 7 2 8 9 6 6 0 8 3 9 6 4 6 6 12 10 18 1 3 2 7 8 5 4-1 4 3 5 6 2 5 3 11 11 9 3-1 6 3 9 6 3 3 5 6 10 2 1-1 3 0 4 1 4 6 11 3 16 7 2 2 2 1 6-4 3 5 5 10 10 13 4 3 7 7 11 1 2-3 4-1 6 1 3 4 6 9 12 5 2-1 4 2 5 3 3 3 5 6 9 4 4-1 4-5 4-9 0-2-1-4 0-7 1 0 2 0 3-1 13-3 13-3 7-15 0-1-2-3 0-4 7-6 0-8-2-12-3-3-6-7-8-11-2-3-8-3-10-7 1-1 1-2 2-3 2-2 7 0 6-5-1-3-5-2-8-3-4 0-7 0-11-2 0-3 3-4 5-5 2-2 2-5-1-6-6-3-7-12-15-13-3-8-11-7-18-9-1 0-2 0-3 0-8-1-9-3-6-11 3-9 1-12-9-10-3 0-6 1-9 1-2 0-3-1-3-3-1-7-7-13-13-13-4 0-7 0-10-1-2 0-4-1-6-1 3-4 10-2 10-7 0-6-7-3-11-5-4-1-9-1-13-4 0 0-2-1-2 0-9 7-18-5-27 0-2 1-4 0-6 0-2 0-4-2-2-4 3-3 2-5-2-6-4-1-12 1-10-8 0-1-2-2-4-2-7 0-14-1-22 2-10 4-10 3-16-7-2-4-6-6-10-8-6-4-11-7-15-13-5-6-8-12-5-19 2-5 1-8-3-11-5-4-7-9-6-15 0-4-1-7-5-9-6-4-8-9-8-15-1-6-3-12-8-16-2-1-4-3-4-5 1-8-4-13-10-17-4-4-6-8-6-14-1-13-11-19-23-12-2 1-4 2-3 5 2 6 3 13 9 18 11 9 17 21 18 36 1 5 2 10 6 13 7 5 8 13 3 22-4 6-10 10-17 12-11 4-22 8-31 15-5 3-9 6-7 13 2 4-1 8-4 10-4 4-9 6-14 8-8 4-16 10-23 16-1 1-4 2-4 4-1 9-9 12-14 18-5 6-11 12-16 17-8 8-12 19-20 27 2 10-4 16-8 23-1 2-2 4-1 5 3 4 6 1 8 1 2-1 3-1 3 0 0 0 0 1-1 2 0 3-3 5-6 7-5 5-11 9-6 17-5 6-3 13-7 19-3 5-6 10-3 16 6-1 12-5 15 3 2 3 5 2 6-1 2-5 3-11 3-17 14 4 10-10 15-14 2-2 2-1 3-1 2 2 0 8 5 8 4 0 5-5 6-8 1-2 1-4 3-6 2 0 2 2 3 3 4 4 7 3 9-1 1-1 1-3 2-5 2-2 4-3 7-2 2 1 3 3 3 6 0 4-1 8-5 11-4 4-8 8-11 13-6 9-4 13 7 13 1 0 2 1 2 1 1 2 0 4-1 5-9 3-12 12-19 17-4 4-6 8 0 12 4 3 1 5 0 8-3 3-7 7-2 12 3 2 0 4-1 7-3 4-6 7-6 13-1 2-1 4 2 5 2 1 4 1 5 0 1-1 2-2 3-2 2-2 4-5 7-5 4 0 3 5 4 7 1 4 4 4 6 3 4-1 6-3 8-7 1-2 3-5 4-8 4 2 3 9 8 8 4-1 4-6 5-10 1-2 0-5 3-8 3 3 3 7 5 10 2 1 3 3 5 2 1 0 2-2 2-3 1-7 2-13 2-19 4-2 5 2 7 3 5 4 9 2 10-4 0-3 0-6 0-9 0-5 0-9 7-8 6 1 8-2 7-7-4-10 5-16 8-24 1-2 3-3 5-3 9 1 9-4 8-11 0-1 0-2 1-3 5-3 5-10 8-14 6-6 6-12 4-19-1-2-1-4 0-7 5-2 9 5 14 1 0 0 0-1 0-1l1 0c-1 1-1 1-2 0 0-1 1-1 2-2 1-5-3-10 2-16 4 7 0 11-2 16 0 1 0 2 0 3 0 0 0 1 1 2z m-20-136c0-6 3-11 5-15 1-2 2-2 4-2 4 2 8 3 12 5 5 2 6 6 2 10-3 3-7 6-12 8-6 3-11 0-11-6z m64 84c-5 0-8-4-9-10-1-6 1-12 3-18 0-1 1-3 3-2 1 0 3 1 3 2 2 7 5 13 6 20 1 5-2 9-6 8z m-23-30c4 0 5 3 5 6-1 5-4 10-8 10-4 0-5-3-5-6-1-5 4-10 8-10z m-2-16c-6 0-10-9-8-15 0-1 1-2 2-3 2-1 4 1 5 2 2 4 4 7 5 10 1 3-1 6-4 6z"/>
<glyph glyph-name="cancel-anytime" unicode="&#50;" d="M162 484l-3 3c-16 17-38 25-60 25-22 0-43-8-60-25-32-33-33-86-2-119 24 54 69 96 125 116z m311-6c-17 17-38 26-60 26-22 0-44-9-60-26l-3-3c56-19 101-62 125-116 31 34 30 87-2 119z m-63-82c-42 43-98 65-154 65-56 0-112-22-154-65-30-31-50-68-58-108 8 4 17 5 27 5 0 0 0 0 0 0 20 0 40-8 54-23l13-15 13 15c14 15 33 23 54 23 18 0 36-6 49-19l16-14c15-14 23-32 24-51 1-20-6-39-19-53l-23-25 23-25c13-15 20-34 19-53 0-12-4-23-9-32 33 4 66 17 95 37l58-58c28-2 25 26 25 26l-55 56c1 0 1 1 2 1 85 87 85 227 0 313z m-177-202c6 7 6 17-1 24l-16 14c-3 3-7 5-11 5-5 0-9-2-12-6l-44-48c-3-3-7-5-11-5-4 0-8 2-11 5l-44 48c-4 4-8 6-12 6-4 0-8-2-12-5l-16-14c-6-7-7-17-1-24l48-51c6-7 6-18 0-24l-48-52c-6-7-5-17 1-23l16-15c4-3 8-4 12-4 4 0 8 2 12 5l44 48c3 4 7 5 11 5 4 0 8-1 11-5l44-48c3-3 7-5 12-5 4 0 8 1 11 4l16 15c7 6 7 16 1 23l-47 52c-6 6-6 17 0 24z"/>
<glyph glyph-name="unlimited-access" unicode="&#51;" d="M468 512l-425 0c-24 0-43-14-43-38l0-331c0-23 18-43 42-43l143 0c12 0 22-14 22-25 0-12-10-18-22-18l-86 0c-15 0-28-14-28-29 0-14 17-28 32-28l305 0c15 0 33 14 33 28 0 15-14 29-29 29l-85 0c-12 0-22 6-22 18 0 11 10 25 22 25l142 0c24 0 43 20 43 43l0 331c0 24-20 38-44 38z m-205-379c-20 0-36 16-36 35 0 20 16 36 36 36 20 0 36-16 36-36 0-19-16-35-36-35z m192 109l-398 0 0 213 398 0z m-142 166c-15 0-29-6-39-16l-18-18-18 18c-11 10-25 16-40 16-15 0-29-6-40-16-10-11-16-25-16-40 0-15 6-29 16-40 11-10 25-16 40-16 15 0 29 6 40 16l18 17 18-17c10-10 24-16 39-16 15 0 29 6 40 16 11 11 17 25 17 40 0 15-6 29-17 40-11 10-25 16-40 16z m-98-73c-9-9-25-9-34 0-4 5-6 11-6 17 0 6 2 12 6 17 5 4 11 7 17 7 6 0 12-3 17-7l17-17z m115 0c-9-9-24-9-34 0l-17 17 18 17c9 9 24 9 33 0 5-5 7-11 7-17 0-6-2-12-7-17z"/>
<glyph glyph-name="cancel-circled" unicode="&#52;" d="M256 471c59 0 110-21 152-63 42-42 63-93 63-152 0-59-21-110-63-152-42-42-93-63-152-63-59 0-110 21-152 63-42 42-63 93-63 152 0 59 21 110 63 152 42 42 93 63 152 63m44-215c0 0 79 79 79 79 0 0-44 44-44 44 0 0-79-78-79-78 0 0-78 78-78 78 0 0-45-44-45-44 0 0 79-79 79-79 0 0-79-78-79-78 0 0 45-44 45-44 0 0 78 78 78 78 0 0 79-78 79-78 0 0 44 44 44 44 0 0-79 78-79 78"/>
<glyph glyph-name="check" unicode="&#53;" d="M212 77c-11 0-21 5-28 14 0 0-92 121-92 121-6 8-8 17-6 27 1 9 5 17 13 23 7 6 16 9 26 7 10-1 18-6 24-14 0 0 60-79 60-79 0 0 152 243 152 243 5 8 13 13 22 15 9 2 18 1 27-4 8-5 13-13 15-22 3-9 1-18-4-27 0 0-179-287-179-287-7-11-16-16-28-16 0 0-2-1-2-1"/>
<glyph glyph-name="circle-1" unicode="&#54;" d="M256 512c-141 0-256-115-256-256 0-141 115-256 256-256 141 0 256 115 256 256 0 141-115 256-256 256z m44-384l-52 0 0 166-64 0 0 39c36-1 69 12 75 51l41 0 0-256z"/>
<glyph glyph-name="circle-2" unicode="&#55;" d="M256 512c-141 0-256-115-256-256 0-141 115-256 256-256 141 0 256 115 256 256 0 141-115 256-256 256z m92-384l-184 0c0 58 36 83 79 112 22 15 52 31 53 62 0 23-16 38-38 38-30 0-40-31-40-57l-48 0c-2 57 30 101 91 101 46 0 86-29 86-79 0-37-20-58-45-76-25-17-54-31-73-57l119 0z"/>
<glyph glyph-name="circle-3" unicode="&#56;" d="M256 512c-141 0-256-115-256-256 0-141 115-256 256-256 141 0 256 115 256 256 0 141-115 256-256 256z m0-384c-55 0-92 33-91 90l47 0c1-27 14-49 43-49 23 0 40 16 40 39 0 37-32 36-57 36l0 36c22-2 53 2 53 30 0 21-17 33-35 33-25 0-38-19-38-44l-47 0c1 50 34 85 85 85 39 0 82-24 82-68 0-23-11-44-34-51l0 0c27-6 43-29 43-56 0-52-43-81-91-81z"/>
<glyph glyph-name="circle-4" unicode="&#57;" d="M201 230l67 0 0 89-1 0z m55 282c-141 0-256-115-256-256 0-141 115-256 256-256 141 0 256 115 256 256 0 141-115 256-256 256z m96-325l-34 0 0-59-50 0 0 59-108 0 0 48 111 149 47 0 0-154 34 0 0-43z"/>
<glyph glyph-name="discussions-and-share" unicode="&#33;" d="M243 297l6 42-3 5c-1 1-1 2 0 2l9 10c0 0 2 0 2 0l9-10c1 0 1-1 0-2l-3-5 6-42c52 1 83 6 83 13 0 29-20 31-43 38-14 5-31 7-27 31 9 9 12 26 12 26 0 0 12 6 14 18 1 9-4 13-4 13l0 11c0 26-22 46-48 46-26 0-48-20-48-46l0-11c0 0-5-4-4-13 2-12 14-18 14-18 0 0 3-17 12-26 4-24-13-26-27-31-23-7-43-9-43-38 0-7 31-12 83-13z m-94-226c-14 4-31 7-27 31 9 8 12 25 12 25 0 0 12 7 14 18 1 9-4 14-4 14l0 11c0 25-22 45-48 45-26 0-48-20-48-45l0-11c0 0-5-5-4-14 2-11 14-18 14-18 0 0 3-17 12-25 4-24-13-27-27-31-23-8-43-9-43-39 0-6 31-12 83-13l6 42-3 5c-1 1-1 2 0 3l9 9c0 1 2 1 2 0l9-9c1-1 1-2 0-3l-3-5 6-42c52 1 83 7 83 13 0 30-20 31-43 39z m320 0c-14 4-31 7-27 31 9 8 12 25 12 25 0 0 12 7 14 18 1 9-4 14-4 14l0 11c0 25-22 45-48 45-26 0-48-20-48-45l0-11c0 0-5-5-4-14 2-11 14-18 14-18 0 0 3-17 12-25 4-24-13-27-27-31-23-8-43-9-43-39 0-6 31-12 83-13l6 42-3 5c-1 1-1 2 0 3l9 9c0 1 2 1 2 0l9-9c1-1 1-2 0-3l-3-5 6-42c52 1 83 7 83 13 0 30-20 31-43 39z m-137 45c4 0 8 2 10 5 5 5 4 13-2 18l-71 60 0 70c0 7-6 13-13 13-7 0-13-6-13-13l0-70-71-60c-6-5-7-13-2-18 4-6 12-6 18-2l68 57 68-57c2-2 5-3 8-3z"/>
<glyph glyph-name="industry-wide" unicode="&#34;" d="M334 464c-3 0-5 1-8 1-10 3-17 7-17 7 0 0 1-2 4-4 2-3 6-6 11-9 2-1 5-2 9-3 3-1 7-2 11-1 8 1 16 5 21 11 3 2 5 6 7 7 2 2 5 4 7 5 5 2 11 2 16 0 5-1 9-3 12-4 2-1 4-2 4-2 0 0-1 1-3 4-2 2-6 6-11 9-2 1-6 2-9 3-4 0-8 1-12-1-2 0-4-1-5-2-2-1-4-2-6-3-4-3-5-5-8-8-4-5-9-8-15-9-2-1-5-1-8-1z m-78 7c3-1 6-2 9-3 4-1 8-1 12-1 8 1 16 5 21 11 2 2 5 6 7 7 2 2 5 4 7 5 5 2 11 2 16 1 4-2 9-3 11-5 3-1 5-2 5-2 0 0-1 1-3 4-2 2-6 6-11 9-3 1-6 2-9 3-4 0-8 1-12-1-2 0-4-1-5-2-2 0-4-2-6-3-4-3-5-5-8-8-4-5-10-8-15-9-3-1-5-1-8-1-3 0-6 1-8 2-10 2-17 6-17 6 0 0 1-2 4-4 2-3 5-6 10-9z m92-216c-27 0-52-11-72-30-39-39-39-103 0-143 20-19 45-30 72-30 27 0 53 11 72 30 40 40 40 104 0 143-19 19-45 30-72 30z m-18-155l-51 51 0 0 0 0 0 0 27 28 25-27 67 55 20-20z m126 240l-13 102-64 0-12-118-196-37 0-40-70 10-8 114-47 0-7-105-39 5 0-271 512 0 0 351z m-320-330l-91 0 0 131 91 0z m76 107l-52 0 0 24 52 0z m221-48c-23-24-54-35-85-35-31 0-61 11-85 35-47 47-47 123 0 170 24 23 54 35 85 35 31 0 62-12 85-35 47-47 47-123 0-170z"/>
<glyph glyph-name="process-approach" unicode="&#35;" d="M490 349l-66-31c26-58 18-127-25-177l-36 36 0-125 125 0-37 37c65 73 78 176 39 260z m-349-236l36 36-125 0 0-125 37 37c73-65 175-78 260-39l-31 66c-58-26-127-18-177 25z m-28 258l36-36 0 125-125 0 37-37c-65-73-78-176-39-260l66 31c-26 58-18 127 25 177z m258 28l-36-36 125 0 0 125-37-37c-73 65-176 78-260 39l31-66c58 26 127 18 177-25z m-115-43c-55 0-100-45-100-100 0-55 45-100 100-100 55 0 100 45 100 100 0 55-45 100-100 100z m67-120l-3-9c-1-2-3-3-5-4-2-1-4-1-7-1l-7 3c-3-4-6-8-10-12l3-7c2-4 0-9-5-11l-8-4c-5-2-10 0-12 4l-3 7c-5-1-11-1-16-1l-2-7c-1-2-3-4-5-5-2-1-4-1-7 0l-9 3c-2 1-4 3-4 5-1 2-2 4-1 7l3 7c-4 3-8 6-12 11l-7-4c-4-2-9 0-11 5l-4 8c-2 5 0 10 4 12l7 3c-1 5-1 11-1 16l-7 2c-2 1-4 3-5 5-1 2-1 4 0 7l3 9c2 4 7 6 12 5l7-3c3 4 6 8 11 12l-4 7c-2 4 0 9 5 11l8 4c5 2 10 0 12-4l3-7c5 1 11 1 16 1l2 7c2 4 7 7 12 5l9-3c4-2 6-7 5-12l-3-7c4-3 8-6 12-10l7 3c4 2 9 0 11-4l4-9c2-5 0-10-4-12l-7-3c1-5 1-11 1-16l7-2c4-2 6-7 5-12z m-67 54c-5 0-10-1-14-3-17-8-25-28-17-45 6-12 18-20 31-20 5 0 10 1 14 3 17 8 25 28 17 45-6 12-18 20-31 20z"/>
<glyph glyph-name="sbok" unicode="&#36;" d="M164 188c-3 1-10 1-19 1l-17 0 0-28 19 0c8 0 13 1 15 1 3 1 6 2 8 4 2 2 3 5 3 9 0 3-1 6-3 8-1 2-3 4-6 5z m95-28c8 0 15 3 20 9 6 6 9 15 8 28 0 12-2 21-7 26-6 6-13 9-21 9-9 0-16-3-21-9-6-6-8-15-8-27 0-12 2-21 8-27 5-6 12-9 21-9z m-102 47c4 1 6 2 9 4 2 2 3 5 3 8 0 3-1 6-3 8-2 2-4 3-8 4-2 0-8 0-18 0l-12 0 0-24 14 0c8 0 13 0 15 0z m-40-111l311 0c23 0 42 19 42 43l0 330c0 24-19 43-42 43l-344 0c-23 0-42-19-42-43l0-426c0-24 19-43 42-43l360 0c14 0 26 12 26 27 0 14-12 26-26 26l-327 0c-12 0-22 10-22 22 0 11 10 21 22 21z m74 64c-2-4-5-8-9-10-4-3-9-5-14-5-4-1-12-1-26-1l-35 0 0 104 42 0c8 0 14 0 18-1 4 0 8-2 11-4 3-2 6-5 8-9 2-3 3-7 3-12 0-5-1-9-4-13-2-4-6-8-10-10 6-1 11-5 14-9 4-5 5-10 5-16 0-5-1-9-3-14z m230-16l-28 0-29 49-17-18 0-31-21 0 0 104 21 0 0-46 43 46 28 0-39-40z m-165 313l50 0 31-114 30 114 50 0 0-167-31 0 0 132-33-132-33 0-33 132 0-132-31 0 0 167z m2-207c16 0 28-5 37-14 10-10 14-23 14-40 0-17-4-30-13-40-10-9-22-14-37-14-16 0-28 5-37 14-10 10-14 23-14 40 0 10 1 19 5 26 2 6 5 11 9 15 5 4 9 7 14 9 6 3 14 4 22 4z m-167 95l33 3c2-11 6-19 12-25 6-5 15-7 25-7 11 0 19 2 24 7 6 4 9 10 9 16 0 4-1 7-4 10-2 3-6 5-12 7-4 1-13 4-27 7-18 5-31 10-38 17-10 9-16 20-16 34 0 8 3 16 8 24 5 7 12 13 21 16 9 4 20 6 33 6 21 0 36-4 47-13 11-10 16-22 17-37l-34-2c-1 9-5 15-9 19-5 3-12 5-22 5-10 0-17-2-23-6-3-2-5-6-5-10 0-4 2-7 5-10 4-4 14-8 31-11 16-4 29-8 36-12 8-5 14-10 19-18 4-7 7-16 7-26 0-10-3-19-8-27-6-8-13-15-23-19-10-4-22-6-36-6-22 0-38 5-49 15-12 10-18 24-21 43z"/>
<glyph glyph-name="down-open" unicode="&#37;" d="M396 293c0 0-120-115-120-115-6-6-12-9-20-9-8 0-14 3-20 9 0 0-120 115-120 115-6 5-8 12-8 21 0 8 2 15 8 21 13 13 26 13 40 0 0 0 100-96 100-96 0 0 100 96 100 96 14 13 27 13 40 0 6-6 8-13 8-21 0-9-2-16-8-21"/>
<glyph glyph-name="up-open" unicode="&#38;" d="M396 220c6-5 8-12 8-21 0-8-2-15-8-21-13-13-26-13-40 0 0 0-100 96-100 96 0 0-100-96-100-96-14-13-27-13-40 0-6 6-8 13-8 21 0 9 2 16 8 21 0 0 120 115 120 115 5 5 12 8 20 8 8 0 15-3 20-8 0 0 120-115 120-115"/>
<glyph glyph-name="nav-associate-level" unicode="&#122;" d="M427 512l-342 0c-47 0-85-38-85-85l0-342c0-47 38-85 85-85l342 0c47 0 85 38 85 85l0 342c0 47-38 85-85 85z m-294-342c-6 11-11 22-14 34l30 0c4-12 10-23 18-33z m159 79c-2-15-15-27-30-29-1-1-3-1-4-1-1 0-2-1-4-1 0 0 0 0 0 0l-171 0c-5 0-9 4-10 9-1 5 2 10 7 12l164 52c1 0 2 0 3 0 0 0 1 0 1 0 1 1 3 1 4 1 2 0 4 1 6 1 7 0 15-3 21-8 7-5 12-14 14-24 0-4 0-8-1-12z m87-78l-34 0c16 19 25 44 25 71 0 63-51 114-114 114-51 0-95-34-109-81l-31-10c11 68 69 119 140 119 79 0 142-64 142-142 0-26-7-50-19-71z"/>
<glyph glyph-name="nav-conducting-exams" unicode="&#65;" d="M427 512l-342 0c-47 0-85-38-85-85l0-342c0-47 38-85 85-85l342 0c47 0 85 38 85 85l0 342c0 47-38 85-85 85z m-313-391c-16 0-29 13-29 29l0 240c0 15 13 27 28 27l198 0c16 0 29-12 29-28l0-117-28-23 0 119c0 12-10 21-22 21l-154 0c-12 0-22-9-22-21l0-196c0-12 10-22 22-22l42 0 29-29-93 0z m36 143c-8 0-14 6-14 14 0 7 6 14 14 14l128 0c8 0 14-7 14-14 0-8-6-14-14-14z m57-48c0-7-7-14-15-14l-42 0c-8 0-14 7-14 14 0 8 6 15 14 15l42 0c8 0 15-7 15-15z m71 109l-128 0c-8 0-14 6-14 14 0 8 6 14 14 14l128 0c8 0 14-6 14-14 0-8-6-14-14-14z m13-231l-80 81 43 42 38-42 104 86 31-31z"/>
<glyph glyph-name="nav-ethical" unicode="&#66;" d="M427 512l-342 0c-47 0-85-38-85-85l0-342c0-47 38-85 85-85l342 0c47 0 85 38 85 85l0 342c0 47-38 85-85 85z m-287-310c-30 0-55 25-55 55 0 2 2 4 4 4l102 0c3 0 4-2 4-4 0-30-24-55-55-55z m55-91c0 14 11 25 24 25l23 0 0 207-95 0 40-64c2-3 1-8-2-10-3-2-8-1-10 3l-35 55-35-55c-1-2-3-4-6-4-1 0-2 1-3 1-4 2-5 7-3 10l41 64-1 0c-6 0-10 5-10 11 0 6 4 11 10 11l80 0c4 6 11 11 19 14 1 12 11 22 24 22 13 0 23-10 24-22 8-3 15-8 19-14l80 0c6 0 10-5 10-11 0-6-4-11-10-11l-1 0 41-64c2-3 1-8-3-10-3-2-7-1-9 3l-35 55-35-55c-2-3-4-4-6-4-1 0-3 1-4 1-3 2-4 7-2 10l40 64-95 0 0-208 23 0c13 0 24-11 24-24l-122 0z m177 91c-31 0-55 25-55 55 0 2 1 4 4 4l102 0c2 0 4-2 4-4 0-30-25-55-55-55z"/>
<glyph glyph-name="ms" unicode="&#47;" d="M98 490l315 0c43 0 78-36 78-79l0-315c0-44-35-79-78-79l-315 0c-44 0-79 35-79 79l0 315c0 43 35 79 79 79z m138-237l0 134c-71-4-128-62-129-134z m10 1l0-139c39 0 74 18 99 44z m-139-2c0-1 0-1 0-1 0 0 0 0 0 0z m129-9l-129 0c5-69 60-124 129-128l0 128z m78 137l-68-67 0-44c0 0 1-1 4-3l96 95c-9 8-20 14-32 19z m62-58c-2 5-4 9-8 14-3 6-8 12-13 16l-97-95c7-6 17-15 27-25z m-75 63c-18 6-37 9-55 8l0-63z m29-196c11-11 18-18 18-18 1-1 17 20 18 21 10 16 17 33 20 51z m58 73c0 10-1 21-3 31-1 5-3 11-5 16l-87-85c10-10 20-19 28-27z"/>
<glyph glyph-name="dm" unicode="&#58;" d="M98 490l315 0c43 0 78-36 78-79l0-315c0-44-35-79-78-79l-315 0c-44 0-79 35-79 79l0 315c0 43 35 79 79 79z m9-238c0-1 0-1 0-1 0 0 0 0 0 0z m15-57l-27-7-18 72 27 7z m202 50c46 45 1 60-16 64l-17 68c-2 5-7 8-12 7-4-1-6-4-7-8-14-12-46-40-71-58-46-32-89-48-89-48l18-74c0 0 16 2 40 3l17-69c2-5 7-8 13-7l15 4c6 1 9 7 8 12l-15 59c8-1 16-2 24-3 30-3 71-13 89-17 3-3 7-5 11-4 5 1 8 7 6 12z m33 78l30 51m-24-54c10 17 20 34 30 51 4 7-7 14-11 6-10-17-21-34-31-51-4-7 7-14 12-6z m12-21l58 15m-56-22c19 6 39 11 58 16 8 2 5 15-4 13-19-5-38-11-57-16-8-2-5-15 3-13z m-6-25l51-28m-54 22c17-9 34-18 50-27 8-4 14 7 7 11-17 9-34 18-50 27-8 4-14-7-7-11z"/>
<glyph glyph-name="smstudy-mobile-app" unicode="&#59;" d="M379 170c0 2-2 3-3 4-2 1-3 1-6 1-2 0-3 0-5-1-2-1-3-2-4-4-1-1-1-3-2-5 0-2 0-4 0-6 0-2 0-3 0-5 1-2 2-4 3-5 1-2 2-3 3-4 2-1 3-1 5-1 3 0 4 0 6 1 1 1 3 2 3 3 1 2 2 4 2 5 1 2 1 4 1 6 0 3 0 5-1 6 0 2-1 4-2 5z m34 320l-315 0c-44 0-79-36-79-79l0-315c0-44 35-79 79-79l315 0c43 0 78 35 78 79l0 315c0 43-35 79-78 79z m-12-101c-52-15-97-54-127-119-1 3-14 35-17 44 34 46 89 72 139 75 2 0 3 0 5 0z m-178-44c-10-9-15-21-16-35 0-14 6-27 15-36 9-9 22-15 36-15 14 0 26 5 36 14 9 9 15 22 15 36 0 2 0 3 0 5 2 3 4 6 7 9 1-4 1-9 1-14 0-17-7-31-17-42-11-11-26-17-42-17-17 0-32 7-42 18-11 11-17 26-17 42 0 16 7 31 18 42 10 10 25 17 42 16 13 0 24-3 34-10-3-2-6-5-7-6-8 5-17 8-27 8-14 0-27-6-36-15z m15 3l32-80c-4-1-7-1-11-1-8 0-16 2-23 6l-20 46c3 12 11 23 22 29z m-148-216c-16 0-30 7-29 24l14 0c0-9 7-12 15-12 5 0 13 1 13 8 0 7-10 9-20 11-10 3-20 7-20 20 0 14 13 20 25 20 15 0 28-6 28-22l-15 0c0 9-6 11-13 11-5 0-11-2-11-8 0-5 4-6 21-10 5-2 20-5 20-20 0-13-10-22-28-22z m110 1l-14 0 0 49 0 0-17-49-11 0-17 48 0 0 0-48-14 0 0 69 21 0 16-47 0 0 15 47 21 0 0-69z m-17 177c0 21 9 40 22 53 14 14 33 22 54 22 19-1 34-7 47-18-3-2-5-3-7-5-12 9-25 14-40 14-19 0-35-7-48-19-12-12-19-29-20-47l0 0c0-18 8-35 19-47 12-13 29-20 47-20 19 0 36 7 48 19 12 12 20 28 20 47 0 7-1 14-3 20 2 2 5 5 7 6 3-8 5-17 4-26 0-21-8-40-22-53-14-14-33-22-54-22-20 0-39 9-53 23-13 13-21 32-21 53z m92-108l0-13-13 0 0 13z m-27-59c-1-3-3-4-5-6-2-1-4-2-7-3-2 0-5 0-8 0-3 0-6 0-9 0-2 1-5 2-7 3-2 2-4 4-5 6-1 2-2 5-2 8l13 0c0-3 1-5 3-6 2-2 4-2 7-2 2 0 4 0 6 1 2 1 3 3 3 5 0 2-1 3-4 4-2 1-6 2-12 3-2 1-4 1-6 2-1 1-3 1-4 2-2 1-3 3-4 4-1 2-1 3-1 5 0 3 1 6 2 8 1 2 2 4 4 5 2 1 5 2 7 2 3 1 5 1 8 1 3 0 6 0 8-1 3 0 5-1 7-2 2-2 3-3 5-5 1-2 2-5 2-8l-13 0c0 3-1 5-3 6-1 1-3 1-6 1-2 0-4 0-5-1-2 0-3-2-3-3 0-2 1-4 3-4 2-1 5-2 9-3 2 0 3-1 4-1 2 0 4-1 6-1 1-1 3-2 4-3 2-1 3-2 4-4 1-1 1-3 1-5 0-3-1-6-2-8z m37 32l-10 0 0-24c0-3 0-4 1-5 1-1 2-1 5-1 1 0 3 0 4 0l0-10c-2-1-5-1-8-1-2 0-4 0-6 1-2 0-4 1-5 2-1 0-2 2-3 3-1 2-1 4-1 6l0 29-9 0 0 9 32 0z m52-40l-13 0 0 7 0 0c-2-3-4-5-6-6-3-2-6-2-9-2-3 0-6 0-9 1-2 1-4 2-5 4-1 2-2 4-3 6-1 3-1 6-1 9l0 30 14 0 0-28c0-4 0-7 2-9 1-2 3-3 6-3 4 0 7 1 8 3 2 3 3 6 3 11l0 26 13 0 0-49z m58 0l-13 0 0 6 0 0c-1-2-4-4-6-6-3-1-6-1-9-1-3 0-7 0-9 2-3 1-5 3-7 5-2 3-3 6-4 9-1 3-2 6-2 10 0 3 1 6 2 9 1 3 2 6 4 8 2 3 4 5 7 6 2 1 5 2 9 2 3 0 6-1 8-2 3-1 5-3 6-5l1 0 0 24 13 0 0-67z m34-6c-1-4-3-7-6-9-2-1-6-2-11-2-2 0-5 0-8 0l0 11c1 0 1 0 2 0 2 0 4 0 6 0 2 0 3 1 4 2 1 1 1 2 1 4 0 1 0 2 0 3l-18 46 15 0 11-34 0 0 11 34 14 0z"/>
<glyph glyph-name="articles-blogs" unicode="&#100;" d="M98 490l315 0c43 0 78-36 78-79l0-315c0-44-35-79-78-79l-315 0c-44 0-79 35-79 79l0 315c0 43 35 79 79 79z m192-219l14-8 28 16-42 25z m85 51l9 18c8 14-14 30-25 36-11 5-36 18-44 3l-14-23c-14 3-30 5-46 5-82 0-148-45-148-100 0-54 66-99 148-99l1 0c1-12-12-32-32-42 78 0 114 59 114 59 40 18 65 48 65 82 2 23-10 44-28 61z m-200-88c-8 0-14 6-14 13 0 8 6 14 14 14 8 0 14-6 14-14 0-7-7-13-14-13z m37 0c-8 0-14 6-14 13 0 8 6 14 14 14 8 0 14-6 14-14 0-7-6-13-14-13z m37 0c-8 0-14 6-14 13 0 8 6 14 14 14 7 0 13-6 13-14 0-7-6-13-13-13z m88 42l-29-16-24-13 0 60 40 69c2 3 16 0 31-8 15-8 25-18 22-22z"/>
<glyph glyph-name="certification-enrollment" unicode="&#60;" d="M98 490l315 0c43 0 78-36 78-79l0-315c0-44-35-79-78-79l-315 0c-44 0-79 35-79 79l0 315c0 43 35 79 79 79z m157-91c-56 0-102-46-102-102 0-57 46-103 102-103 57 0 102 46 102 103 0 56-45 102-102 102z m97-180l18 10 1 24 15 20-7 23 7 23-15 19 0 24-21 13-8 23-24 5-16 19-24-4-22 12-21-12-24 5-16-19-25-4-8-23-22-12 0-25-16-19 8-23-8-23 15-19 0-25 20-12-60-88 61 3 20-57 62 93 12-7 13 8 63-94 20 57 61-3z m-168-113l-15 42-44-3 40 60 4-10 23-4 17-19 21 3z m70 73l-19 10-2 0-19-3-15 17-15 3-6 1-1 3-6 18-5 3-14 8 0 22-13 16 7 21-7 20 14 17 0 22 19 11 8 20 22 4 14 16 21-3 19 10 19-11 22 3 14-16 21-4 8-21 18-11 0-22 14-17-7-20 6-21-13-17-1-21-12-7-7-4-6-17-2-3-6-2-15-3-14-16-19 3-3 1z m87-31l-14-42-46 68 19-3 15 18 25 5 5 12 40-61z m-162 120l0 57 39 0 0-10-27 0 0-13 24 0 0-10-24 0 0-24-12 0z m59 0l-11 0 0 41 10 0 0-6c2 3 4 5 5 6 1 1 3 1 5 1 2 0 5-1 7-2l-3-10c-2 2-4 2-6 2-1 0-2 0-3-1-2-1-2-2-3-5-1-2-1-6-1-13l0-13z m44 13l11-2c-1-4-3-7-6-9-3-2-7-3-12-3-7 0-12 2-15 7-3 4-5 8-5 14 0 7 2 12 6 16 3 4 8 6 13 6 6 0 11-2 15-6 3-4 5-10 5-19l-27 0c0-3 1-5 2-7 2-2 4-3 7-3 1 0 3 1 4 1 1 1 2 3 2 5z m1 11c0 3-1 6-2 7-2 2-4 3-6 3-2 0-4-1-6-3-1-2-2-4-2-7l16 0z m44-11l10-2c-1-4-3-7-6-9-3-2-7-3-11-3-8 0-13 2-16 7-3 4-4 8-4 14 0 7 1 12 5 16 4 4 8 6 13 6 7 0 11-2 15-6 4-4 5-10 5-19l-27 0c0-3 1-5 2-7 2-2 4-3 7-3 1 0 3 1 4 1 1 1 2 3 3 5z m0 11c0 3-1 6-2 7-2 2-4 3-6 3-2 0-4-1-6-3-1-2-2-4-2-7l16 0z"/>
<glyph glyph-name="nav-video" unicode="&#103;" d="M427 512l-342 0c-47 0-85-38-85-85l0-342c0-47 38-85 85-85l342 0c47 0 85 38 85 85l0 342c0 47-38 85-85 85z m-91-267l-133-106c-7-5-19-5-26 0l0 1c-4 2-6 6-6 10l0 212c0 4 2 8 5 10l1 1c7 5 19 5 26 0l132-106 1 0c7-6 7-16 0-22z"/>
<glyph glyph-name="choose-a-subject" unicode="&#41;" d="M509 256c0-140-113-253-253-253-140 0-253 113-253 253 0 140 113 253 253 253 140 0 253-113 253-253m-126 46c-2 9-2 24 7 29 0 0 0 1 0 1 7 2 12 5 8 9l-101 30-163-22c0 0-18-3-17-32 1-16 6-24 11-27l-14-4c-4-4 1-8 8-10 0 0 0 0 0 0 9-5 9-21 7-30-30-8-19-11-19-11l7-2c-5-4-9-12-9-27 2-29 17-31 17-31l107-34 161 39c0 0 11 2-19 11-2 9-2 24 7 30 0 0 0 0 0 0 7 2 12 5 8 9l-7 2c5 3 12 11 13 30 0 13-3 20-7 25l14 3c0 0 11 3-19 12z m-135 0l27 6 92 18 13 3c-4-8-4-19-3-26 0-1 0-3 0-4l-15-4-115-28z m-116-28l13-3 88-18 8-2 23-4 1-36-119 30-11 3c0 1 0 2 0 4 1 7 1 18-3 26z m-5 44c-1 8 1 14 4 17 1 1 3 2 5 2 1 0 1 0 1 0l70-23 35-12-1-35-98 27-5 2c0 0-1 0-1 0 0 0-10 1-10 22z m105-162l-103 29c0 0-1 0-1 0 0 0-10 1-10 23-1 7 1 13 4 16 1 2 3 2 5 2 1 0 1 0 1 0l105-34z m136 37c0-2 0-3 0-5l-130-32 1 35 28 6 4-1 15 5 72 15 13 2c-4-7-4-18-3-25z m7 48c0 0-1-1-1-1l-10-2-93-27-1 36 30 10 75 24c0 0 4 1 6-2 3-3 5-8 4-16 0-22-10-22-10-22z"/>
<glyph glyph-name="elements-of-digital-marketing" unicode="&#44;" d="M98 490l315 0c43 0 78-36 78-79l0-315c0-44-35-79-78-79l-315 0c-44 0-79 35-79 79l0 315c0 43 35 79 79 79z m9-238c0-1 0-1 0-1 0 0 0 0 0 0z m-60-31l24 6 16-65-24-6z m224-14c42 41 1 55-15 58l-15 62c-1 5-6 8-11 6-3 0-5-3-6-7-13-11-42-37-64-52-42-30-82-44-82-44l17-67c0 0 14 2 36 2l16-62c1-5 6-8 11-7l15 4c4 1 7 6 6 11l-13 53c7-1 14-1 21-2 28-3 66-12 82-16 2-3 6-5 9-4 5 1 7 6 6 11z m35 68c10 15 19 31 28 46 4 7-6 13-10 6-10-15-19-31-28-46-4-7 6-13 10-6z m14-25c17 5 35 10 52 14 8 2 4 14-3 12-18-5-35-10-53-14-7-2-4-14 4-12z m-9-29c16-8 31-16 46-24 7-4 13 6 6 10-15 8-30 17-46 25-6 3-12-7-6-11z m47 174c3 13-5 26-19 30-13 3-27-4-30-17-4-13 5-26 18-29 14-4 28 3 31 16z m-91-17c4 13-5 26-18 30-14 4-28-4-31-17-4-12 5-25 18-29 14-4 28 4 31 16z m177-35c4 13-5 26-18 30-14 3-28-4-31-17-4-12 5-26 18-29 14-4 28 4 31 16z m19-93c3 13-5 26-19 29-13 4-27-3-31-16-3-13 5-26 19-30 14-3 27 4 31 17z m-29-95c4 13-5 26-18 29-14 4-28-3-31-16-3-13 5-26 19-29 13-4 27 3 30 16z m-82-56c3 12-5 26-19 29-14 4-28-4-31-16-3-13 5-26 19-30 13-3 27 4 31 17z"/>
<glyph glyph-name="broadcast-globally" unicode="&#39;" d="M509 256c0-140-113-253-253-253-140 0-253 113-253 253 0 140 113 253 253 253 140 0 253-113 253-253m-228 113l0-2-2 0-1-3 3 0 3 0 2 2-2 1-1 1-1 2-1 4-3-1-1-1 0-1 2-1z m-3-2l0 2-2 1-2-1-2-2 0-2 2 0z m-49-8l0-1-3 0 0-1 1 0c0 0 0-1 0-1l1 0 1 1 1 1 1 0 0 1-1 0z m-6-2l-1-1 2 0 1 1-2 1z m-68-5l0-2c1 2 2 4 3 6z m142-101c3-1 5-2 8-4 2 2 4 4 5 6-2 2-5 3-7 4-2-2-4-4-6-6m36 65c0 3 0 6-1 8-1 10-3 18-6 27 0 0-1 1-1 2-4 10-10 19-18 27 0 1-1 1-1 2-2 1-3 3-5 4-17 16-40 25-65 25-25 0-48-9-65-25-4-4-7-8-11-12-12-16-20-37-20-59 0-44 30-82 71-93 1 2 2 5 3 8-38 10-66 44-66 85 0 12 3 24 7 35l0 2 3 4c1 2 3 4 4 6l0-1-4-5c-1-2-2-4-3-6l0-5 4-2 0-7 3-6 3-1 1 2-4 6-1 5 2 0 1-5 5-8-1-2 3-5 8-2 0 2 3-1 0-2 2 0 4-1 5-6 7-1 0-5-4-4 0-5-1-3 7-8 0-3c0 0 3 0 3 0 0 0 5-4 5-4l0-16 2 0-1-7 3-4-1-7 4-7 1-1c1 3 3 5 4 8l0 0 2 2 0 2-2 1 0 1 3 1 6 2 1 3 6 8-1 5 1 3 5 0 4 3 1 10 4 5 0 3-3 1-2 4-8 0-6 2-1 5-2 3-5 0-3 6-3 1-1-2-5 0-2 3-5 1-5-5-7 1 0 8-5 1 2 4-1 2-7-5-4 1-1 3 1 4 2 4 5 3 11 0 0-4 3-1 0 5 3 3 5 3 1 3 5 6 6 3-1 0 4 4 2 0 0-1 2 1 0 1-1 0-2 0 0 2 1 1 2 0 1-1 0-1 1 0 0 0 1 0 2 0 1 2 1-1 0-1-1-1 0-2 5-1 0 0 1 0 0 2-4 2 0 1 3 1 0 3-3 2 0 5-5-2-1 0 0 4-6 1-3-2 0-6-5-1-1-4-3 0 0 5-4 0-2 2-1 3 8 5 4 1 0-3 2 0 0 2 3 0 0 0-1 1 0 1 2 0 2 2 0 0 0 0 1 1 5 0 3-2-7-3 9-2 1 2 4 0 1 3-3 1 0 3-8 3-6 0-3-2 0-4-3 1-1 2 4 3-6 0-2 0-1-2 3-1-1-2-4 0 0-2-6 0c0 0 0 3 0 3 0 0 4 0 4 0l3 3-1 1-3-2-4 0-2 4-5 0-5-4 5 0 0-2-1-1 5 0 1-2-6 0 0 2-4 1-2 1-4 0c14 10 32 16 51 16 23 0 43-8 59-22l-1-1-4-2-2-2 0-2 2 0 2-4 3 2 1-4-1 0-3 0-3 0-4-5-4-1-1-4 2 0 0-3-5 1-4-1-1-2 1-5 2-1 4 0 3 0 1 3 4 5 3 0 3 2 0-2 7-5-1-1-3 1 1-2 2-1 3 1 0 3 1 1-1 0-5 3-1 3 4 0 1-1 3-3 0-3 4-4 1 5 2 2 1-5 2-2 5 0c1-2 2-5 2-7l0 0-7 0-5 3-4-1 0-2-2 0-1 1-8 2 0 5-10-1-3-2-4 0-2 0-5-2 0-5-9-7 0-3 2 0 0-3-1-1-1-7 9-10 4 0 0 1 6 0 2 2 4 0 2-2 6-1-1-7 6-11-3-7 0-3 3-2 0-6c7-3 13-6 18-9 2 3 4 6 5 9 4 7 6 14 8 22 1 1 1 3 1 5 1 6 2 11 2 17 0 0 0 1 0 1m-126 37l-2-1-2 0 0 2 1 0 1 1 2 0z m0 4l-1-1-2 0 0 2 3 0z m3 2l1-1-1-1-1 1z m-2-2l0 0 4-1 0-2-3 0-1 1 0 2z m-2 4l2-1-2-1z m-8 0l3 1 3 0 0-1 1 0 0-2-5 0-2 1z m0-5l2 2 3 0-4-5-2 1z m-3 13l2-1-1-3-2 0-1 3z m-5 7l-5 0-1 1 4 1c0 0 2 0 2 0 0 0 0-2 0-2m-4 6l1 1 3 0 0-1-1-2-5 0 0 2z m117-14l-6 0 0 1 4 2 0 5c1-2 3-4 4-5z m13-17l-1 0 0 4 0 0c1-1 2-3 2-4z m6-16l0 0c1 0 1-1 1-1z m-89-108c-3 0-5 0-8 1-2-3-3-5-4-8 3 0 6-1 9-1 1 3 2 5 3 8m50 4c5 3 9 6 13 9-2 1-5 2-8 3-12-8-26-14-42-16-2-3-4-6-5-8 5 0 11 1 16 2 2 2 10 12 26 10m-49-51c0 0 1-1 1-1l4 2c0 0-1 1-1 1-10 23 0 50 23 60 22 11 50 1 60-22 0 0 0 0 1-1l4 2c-1 0-1 1-1 1-11 25-41 36-66 24-25-11-36-41-25-66z m-17-8c0 0 1 0 1-1l4 2c0 0-1 1-1 1-15 32 0 71 32 85 32 15 70 1 85-31 0 0 0-1 1-1l4 2c-1 0-1 0-1 1-16 34-57 49-91 33-34-15-50-56-34-91z m37 17c0 0 0-1 0-1l4 2c0 0 0 0-1 1-5 12 0 27 12 32 13 6 27 0 33-12 0 0 0 0 0-1l4 2c0 0 0 1 0 1-7 14-24 21-38 14-15-7-21-24-14-38z m165 19l-12 27c-2 3-5 4-8 3l-84-39c-3-1-4-5-3-8l5-9-6-3-5 11c-1 2-5 3-8 2l-8-4-6 14 6 3c0 0 0 0 0 1-3 5-9 7-15 5-5-3-8-9-5-15 0 0 0 0 0 0l7 2 6-13-8-4c-3-2-5-5-4-8l5-10-6-2-4 10c-2 3-5 4-8 3l-84-39c-3-2-4-5-3-8l13-27c1-3 5-4 8-3l83 39c3 1 4 5 3 8l-4 8 6 3 15-34c2-2 5-3 9-2l22 11c4 1 5 5 4 7l-15 34 6 3 4-10c1-3 5-4 8-3l83 39c3 2 5 5 3 8z"/>
<glyph glyph-name="build-your-course" unicode="&#40;" d="M509 256c0-140-113-253-253-253-140 0-253 113-253 253 0 140 113 253 253 253 140 0 253-113 253-253m-377 119c-3-1-6-4-6-7l0-191c0-4 4-7 8-7 0 0 1 0 1 0 12 2 30 4 50 4 22 0 42-2 54-5l0 206c-9 3-30 8-54 8-24 0-44-5-53-8m296-195l-34 44c-3 3-6 5-10 5-3 0-6-1-8-3-2-1-3-3-4-4-2 3-6 4-10 4-3 0-5-1-8-2-3-3-4-6-5-9l-1 2c-2 3-6 5-10 5-3 0-6-1-8-3-3-2-5-5-5-9l-19 25c-3 4-7 5-11 5-2 0-5-1-7-2-6-5-7-13-3-18l48-63-8 2c-2 1-3 1-4 1-6 0-11-4-12-10-2-7 2-14 8-16l47-13c1 0 2 0 4 0 2 0 5 0 7 2l50 39c6 4 7 12 3 18m-150 37c0 0-8 16 5 25 0 0 16 13 27-4l13-16c0 0 10 10 22 3 0 0 5 9 16 8l0 135c0 3-2 6-5 7-9 3-30 8-53 8-24 0-45-5-54-8l0-206c11 3 31 5 54 5 3 0 5 0 8 0z"/>
<glyph glyph-name="earn-while-they-learn" unicode="&#42;" d="M509 256c0-140-113-253-253-253-140 0-253 113-253 253 0 140 113 253 253 253 140 0 253-113 253-253m-381 109c-3-1-5-3-5-6l0-173c0-4 3-7 7-7 1 0 1 0 2 0 10 3 26 4 44 4 21 0 39-2 49-5l0 187c-8 3-27 8-49 8-21 0-40-5-48-8m180-68c7 2 14 3 21 3 2 0 4 0 6 0l0 59c0 3-2 5-5 6-8 3-26 8-48 8-22 0-41-5-49-8l0-187c7 2 24 5 36 5-24 32-6 72-2 79 8 17 23 29 41 35m36-7c-1 0-2 0-2 0-1 0-1 0-2 0-1 0-2 0-3 0-22-2-41-13-53-30-4-6-7-12-9-19 0-1-1-2-1-3 0-1-1-3-1-4-1-4-1-9-1-14 0-9 2-17 5-25 10-26 35-44 65-44 38 0 69 31 69 69 0 38-30 69-67 70m18-103c-3-4-8-6-14-7l0-3c0-3-2-5-4-5l-3 0c-2 0-4 2-4 5l0 3c-3 0-6 1-9 3-3 1-6 4-8 7-1 3-2 5-3 8 0 1 0 3 0 4 1 1 2 2 4 2l2 0c1 0 1 0 2 0 1 0 3-1 3-3 1-3 2-5 3-7 3-3 7-5 12-5 1 0 1 0 2 0 4 1 7 2 9 5 2 2 3 5 3 9 0 3-1 6-2 8-3 3-8 5-12 6-2 0-4 0-6 1-3 1-6 2-9 4-4 1-6 4-8 7-1 3-2 7-2 10 0 1 0 1 0 2 0 1 0 2 0 4 1 1 1 2 2 4 1 3 3 5 5 7 2 2 4 3 6 4 2 1 4 1 5 1l0 4c0 1 1 1 1 2 0 1 2 2 3 3 1 0 1 0 1 0l3 0c2 0 4-2 4-5l0-4c4 0 8-2 11-4 3-3 5-6 6-10 1-2-1-5-3-6l-3 0c-2 0-4 1-5 3 0 2-1 3-2 4-2 3-6 4-10 4-1 0-2 0-3 0-1 0-2-1-2-1-2-1-4-2-5-3-1-1-1-1-2-2 0-2-1-4-1-6 0-3 1-5 2-7 2-2 4-3 6-4 3-1 6-2 9-3 3 0 6-1 9-2 3-1 6-3 7-5 2-2 4-4 5-7 1-2 1-5 1-8 0-7-2-13-6-17"/>
<glyph glyph-name="cicon-invite-friends" unicode="&#43;" d="M317 142c62-22 93-42 93-62 0 0 0-54 0-54 0 0-410 0-410 0 0 0 0 103 0 103 12 5 26 9 42 13 32 12 54 24 66 36 12 12 18 28 18 48 0 8-4 16-12 25-8 9-13 21-16 38 0 4-4 8-11 13-8 4-12 14-13 31 0 5 1 10 2 13 2 4 4 6 5 6 0 0 2 2 2 2-3 17-5 32-6 45-2 19 5 38 20 58 16 19 43 29 82 29 39 0 66-10 82-29 16-20 23-39 22-58 0 0-8-45-8-45 7-2 10-10 10-21-1-10-3-17-5-22-2-5-5-8-7-9-2-1-5-2-7-4-3-2-4-5-5-9-3-16-9-28-17-38-8-9-12-17-12-25 0-20 7-36 19-48 12-12 34-24 66-36m118 140c0 0 77 0 77 0 0 0 0-52 0-52 0 0-77 0-77 0 0 0 0-76 0-76 0 0-51 0-51 0 0 0 0 76 0 76 0 0-77 0-77 0 0 0 0 52 0 52 0 0 77 0 77 0 0 0 0 76 0 76 0 0 51 0 51 0 0 0 0-76 0-76"/>
<glyph glyph-name="check-alt" unicode="&#46;" d="M256 512c-141 0-256-115-256-256 0-141 115-256 256-256 141 0 256 115 256 256 0 141-115 256-256 256z m-40-374l-117 118 45 45 72-73 154 154 45-45z"/>
<glyph glyph-name="x-alt" unicode="&#61;" d="M256 512c-141 0-256-115-256-256 0-141 115-256 256-256 141 0 256 115 256 256 0 141-115 256-256 256z m127-337l-46-46-81 82-81-82-46 46 82 81-82 81 46 46 81-82 81 82 46-46-82-81z"/>
<glyph glyph-name="certification-enrollment-1" unicode="&#45;" d="M413 490l-315 0c-44 0-79-36-79-79l0-315c0-44 35-79 79-79l315 0c43 0 78 35 78 79l0 315c0 43-35 79-78 79z m-52-391c0-8-7-15-16-15l-231 0c-8 0-15 7-15 15l0 309c0 8 7 15 15 15l231 0c9 0 16-7 16-15l0-23-31-54 0 61-200 0 0-277 200 0 0 38 16 11c3 2 6 4 8 8l7 12z m-73 233l-116 0c-8 0-15 7-15 15 0 9 7 16 15 16l116 0c8 0 15-7 15-16 0-8-7-15-15-15z m15-47c0-9-7-16-15-16l-116 0c-8 0-15 7-15 16 0 8 7 15 15 15l116 0c8 0 15-7 15-15z m-146-126c0 9 7 16 15 16l58 0c8 0 15-7 15-16 0-8-7-15-15-15l-58 0c-8 0-15 7-15 15z m279 187l-96-167c0-1-1-2-2-2l-51-34c-2-1-5-1-8 0-2 2-4 4-4 7l4 57-107 0c-8 0-15 7-15 15 0 9 7 15 15 15l116 0c2 0 3 0 5-1l83 145c1 1 3 3 5 3 1 1 14 4 33-7 20-12 23-24 23-25 1-2 0-4-1-6z"/>
<glyph glyph-name="delivery-options-and-global-reach" unicode="&#62;" d="M129 253c0 0 88 89 88 163 0 49-39 89-88 89-50 0-90-40-90-89 0-78 90-163 90-163z m-47 163c0 25 21 46 46 46 26 0 47-21 47-46 0-26-21-47-47-47-25 0-46 21-46 47z m375-32l-7-2-39-3-10-18-8 3-31 28-5 14-6 15-19 18-23 4 0-10 22-22 11-13-12-6-10 3-15 6 0 12-19 8-7-28-20-5 2-16 26-5 5 26 21-4 10-5 16 0 11-22 28-29-2-12-23 3-40-20-29-35-4-15-10 0-20 9-18-9 4-20 8 9 15 1-1-18 12-3 12-14 19 6 22-4 26-7 13-1 22-25 42-25-27-52-29-13-11-30-42-28-4-16c106 26 185 121 185 236 0 50-15 96-41 134z m-173-261l-18 33 16 33-16 5-18 19-40 9-14 28 0-17-5 0-26 35c-13-15-22-25-23-26l-11-11-11 11c-3 2-55 52-80 112-16-32-24-67-24-104 0-134 108-243 242-243 10 0 20 1 30 2l-2 30c0 0 11 43 11 45 0 1-11 39-11 39z m-47 322l18-2 43 4 12 13 17 11 24-4 8 2c-31 14-66 23-103 23-17 0-34-2-50-5 12-14 21-31 25-50z m29 23l25 14 16-10-23-17-22-2-10 6z"/>
<glyph glyph-name="easily-build-your-own-course" unicode="&#63;" d="M467 511c-5 0-9 0-13 0-17-17-33-35-51-51-7-7-8-11-1-18 14-13 27-26 39-39 7-7 12-7 19 0 16 17 34 34 51 51 0 4 0 9 0 13-15 15-30 29-44 44z m-454-484c-12 12-8-26-12-26 7 0 21-2 26 4 3 4-1 7-3 10-4 4-7 8-11 12z m422 348c-21 22-39 40-57 58-4-4-9-8-13-12-48-47-95-95-142-142-53-53-106-106-159-159-10-11-10-19 0-26 10-7 20-14 28-23 16-19 15-19 33-2 79 79 158 158 237 237 24 24 49 47 73 69z m5-94c-13 0-20 6-22 19-2 10-7 18-11 28-19-12-24-23-18-45 15-55 2-105-39-145-41-41-91-52-147-38-24 6-24 6-40-17 18-14 55-7 46-47 23 0 42-1 62 0 3 0 9 5 8 7-1 21 12 27 30 31 6 2 13 5 18 9 11 8 20 7 30-2 4-3 13-5 16-3 16 12 31 27 48 42-25 18-22 35-9 53 2 2 3 5 3 8 2 21 15 30 35 29 1 0 1 2 4 3 0 16-1 34 0 51 1 11-2 17-14 17z m-364-104c1-5 4-9 6-14 24 17 23 17 18 42-4 15-7 30-6 45 6 98 92 164 190 140 26-6 26-6 42 17-8 3-15 8-23 9-16 3-24 11-24 27 0 4-5 10-8 10-20 1-40 1-59 1-7-29-7-29-33-39-2-1-4-1-5-2-18-13-36-19-54 6-15-16-28-30-41-45-2-2-3-11 0-14 11-11 13-22 2-35-3-4-5-9-6-13-3-21-13-36-38-32 0-24 0-46 0-70 26 4 34-12 39-33z m-30-151c15-15 26 9 44 11-19 19-35 34-51 50-23-32-24-33 7-61z"/>
<glyph glyph-name="free-joining-process" unicode="&#64;" d="M264 275c-7 0-12-2-17-7-5-5-7-10-8-15l36 20c-3 1-7 2-11 2z m93 0c-7 0-13-2-18-7-4-4-6-9-7-15l36 20c-3 1-7 2-11 2z m113-59c15 10 32 21 32 40 0 19-17 30-32 40-6 3-15 9-18 13 1 4 6 15 9 20 8 16 17 34 8 50-9 16-29 17-47 18-7 0-19 1-22 3-2 3-3 15-3 22-1 18-2 38-18 47-4 3-9 4-14 4-12 0-24-6-36-12-7-3-16-8-20-9-4 3-10 12-13 18-10 15-21 32-40 32-19 0-30-17-40-32-3-6-9-15-13-18-4 1-13 5-20 9-12 6-24 12-36 12-5 0-10-1-14-4-16-9-17-29-18-47 0-7-1-19-3-22-3-2-15-3-22-3-18-1-38-2-47-18-9-16 0-34 8-50 3-5 8-16 9-20-3-4-12-10-18-13-15-10-32-21-32-40 0-19 17-30 32-40 6-3 15-9 18-13-1-4-6-15-9-20-8-16-17-34-8-50 9-16 29-17 47-18 7 0 19-1 22-3 2-3 3-15 3-22 1-18 2-38 18-47 4-3 9-4 14-4 12 0 24 6 36 12 7 4 16 8 20 9 4-3 10-12 13-17 10-16 21-33 40-33 19 0 30 17 40 33 3 5 9 14 13 17 4-1 13-5 20-9 12-6 24-12 36-12 5 0 10 1 14 4 16 9 17 29 18 47 0 7 1 19 3 22 3 2 15 3 22 3 18 1 38 2 47 18 9 16 0 34-8 50-3 5-8 16-9 20 3 4 12 10 18 13z m-307 115c0-6-4-10-10-10l-3 0c-5 0-10-2-13-6-3-4-5-8-5-12l0-7 16 0c5 0 10-4 10-9l0-3c0-5-5-10-10-10l-16 0 0-60c0-6-4-10-10-10l-2 0c-6 0-10 4-10 10l0 87c0 12 3 22 11 30 7 8 17 11 29 11l3 0c6 0 10-4 10-9l0-2z m48-55c-8 0-13-3-17-8-5-6-7-13-7-20l0-34c0-6-4-10-10-10l-2 0c-6 0-10 4-10 10l0 72c-1 3 1 6 2 8 2 1 5 2 7 2l3 0c5 0 9-3 10-7 7 6 15 9 23 9 3 0 5-1 7-3 2-1 4-4 4-7l0-2c0-5-5-10-10-10z m98-44c-3-6-6-11-11-16-9-9-21-14-34-14-13 0-24 5-33 14-10 9-14 21-14 34 0 13 4 25 14 34 9 9 20 14 33 14 12 0 22-3 30-10 5-4 8-8 10-10 2-2 2-5 2-8-1-3-3-5-5-7l-55-30c0 0 0 0 1-1 5-5 10-7 17-7 7 0 13 2 18 7 2 3 4 5 5 8 2 4 6 7 11 6l3 0c3-1 6-3 7-5 2-3 2-6 1-9z m93 0c-3-6-6-11-11-16-9-9-21-14-34-14-13 0-24 5-34 14-9 9-14 21-14 34 0 13 5 25 14 34 10 9 21 14 34 14 11 0 20-3 30-10 5-4 8-7 9-9l1-1c1-2 2-5 1-8 0-3-2-5-5-7l-53-29c0 0-1 0-2 0 1-1 1-1 1-2 5-5 11-7 18-7 7 0 13 2 18 7 2 3 4 5 5 8 2 4 6 7 11 6l3 0c3-1 5-3 7-5 1-3 2-6 1-9z"/>
<glyph glyph-name="get-associated-with-the-global-accreditation" unicode="&#91;" d="M425 350c-8-7-16-13-24-19 7-9 12-16 19-24-9-5-18-9-27-14 4-9 7-18 11-27-9-3-18-5-28-7 1-9 2-18 3-29-10 0-20 0-30 0-1-10-2-18-4-29-10 3-18 6-28 9-4-9-7-17-12-27-8 5-16 10-25 16-5-7-11-15-18-24-7 7-13 14-20 22-8-6-16-11-24-18-4 9-9 17-13 27-9-4-17-7-27-11-3 10-5 19-7 28-10-1-20-1-30-2 1 10 1 19 2 28-10 2-19 4-29 5 2 9 5 18 8 28-9 4-18 8-27 12 5 8 10 16 15 25-7 6-14 12-22 18 7 7 14 13 21 20-6 8-11 15-18 24 9 4 17 8 27 13-4 10-7 19-11 28 10 2 18 4 28 6-1 10-2 19-3 29 10 0 20 0 30 0 1 9 2 19 4 29 9-3 18-6 28-9 3 8 7 17 11 27 9-5 16-10 25-16 6 8 12 16 18 24 1 0 2 0 3 0 6-8 11-15 17-23 9 7 16 13 24 19 5-9 10-18 14-27 10 4 18 8 27 11 3-10 5-19 7-28 10 1 19 2 30 3-1-11-2-20-2-29 10-2 19-3 29-5-3-9-5-19-8-28 10-4 18-8 27-12-6-9-11-16-16-25 9-6 17-11 24-16 1-1 1-2 1-2z m-290-5c-1-67 53-122 120-122 66 0 121 54 121 120 0 67-53 121-120 122-66 0-121-54-121-120z m-40-307c21 53 40 103 59 152 0 2 2 2 3 3 2-6 3-12 5-18 11 4 20 8 31 13 5-10 10-20 16-31 9 8 17 14 27 21 8-9 15-16 23-25 7 9 13 18 20 27 10-6 19-12 29-19 4 11 8 21 12 31 23-3 38-13 46-36 13-31 29-61 43-92 3-4 5-9 8-16-20 3-38 4-55 8-15 3-27 0-37-13-11-14-23-27-38-43-11 44-22 86-33 128-1 0-2 0-3 0-7-42-15-83-23-127-13 13-26 23-36 35-13 15-26 21-46 13-15-5-32-7-51-11z m254 305c-1-51-43-93-93-93-52 1-93 42-93 94 0 51 42 92 93 92 52 0 93-41 93-93z"/>
<glyph glyph-name="invests-in-improving-your-courses" unicode="&#93;" d="M435 406c0 9-8 11-15 13l0-26c7 1 15 5 15 13z m-23 54c-9 0-14-5-14-11 0-6 4-10 14-12z m4-111c42 0 77 34 77 77 0 43-35 78-77 78-43 0-78-35-78-78 0-43 35-77 78-77z m-35 97c0 18 15 27 31 27l0 7c0 2 2 4 4 4 2 0 4-2 4-4l0-7c10 0 30-6 30-19 0-5-4-8-8-8-8 0-8 14-22 14l0-24c17-4 32-9 32-29 0-17-13-25-32-27l0-8c0-2-2-4-4-4-2 0-4 2-4 4l0 8c-22 1-32 14-32 24 0 5 3 8 8 8 14 0 3-18 24-19l0 27c-19 4-31 12-31 26z m-278-288l-66 0c-13 0-23-10-23-22l0-100c0-13 10-23 23-23l66 0c13 0 23 10 23 23l0 100c0 12-10 22-23 22z m173 78l-67 0c-12 0-22-10-22-22l0-178c0-13 10-23 22-23l67 0c12 0 22 10 22 23l0 178c0 12-9 22-22 22z m173 89l-67 0c-12 0-22-10-22-22l0-267c0-13 10-23 22-23l67 0c12 0 22 10 22 23l0 267c0 12-10 22-22 22z m-134 64l-55 12c-4 1-9-1-11-4-3-4-3-8-1-12l12-23-245-127c-6-3-8-9-5-15 2-4 6-6 10-6 2 0 3 0 5 1l246 127 11-21c2-4 6-6 10-6 0 0 0 0 0 0 5 0 8 3 10 7l21 52c2 3 1 7 0 10-2 3-4 5-8 5z"/>
<glyph glyph-name="recognized" unicode="&#94;" d="M342 101c-12 2-17 9-19 13-2 5-3 11 0 20-8 6-10 13-10 19 0 6 2 13 10 19-3 9-2 15 0 20 2 4 7 11 19 13 1 5 3 10 6 14 6 7 17 10 27 5 6 8 14 10 19 10 1 0 2 0 2 0-24 21-55 38-89 46 37 25 62 74 62 118 0 62-50 112-112 112-62 0-113-50-113-112 0-44 26-93 63-118-88-22-154-98-154-155 0-33 102-50 204-50l-57 57 48 116-1 0-18 21c8-3 18-5 28-5 9 0 19 2 28 5l-19-21 0 0 48-116-57-57c29 0 58 1 85 4l3 13c-1 3-2 6-3 9z m37-6c0 0-1 0-1 0-6-4-11-6-16-5l-19-73 19 13 8-20 19 73c-4 1-7 5-10 12z m31 0c0 0 0 0-1 0-3-8-7-12-12-13l21-80 8 27 20-20-22 81c-4 0-9 1-14 5z m37 68c-1 3-2 5-3 7 12 14 7 21-10 18-1 2-3 3-5 5 3 17-4 21-17 10-3 1-5 2-8 2-6 16-14 16-20 0-2 0-5-1-7-2-13 11-21 7-18-10-1-2-3-3-5-5-17 3-21-4-10-18-1-2-2-4-2-7-16-6-16-14 0-20 0-3 1-5 2-7-11-14-7-21 10-18 2-2 4-3 5-5-3-17 5-21 18-10 2-1 5-2 7-2 6-16 14-16 20 0 3 0 5 1 8 2 13-11 20-7 17 10 2 2 4 3 5 5 17-3 22 4 10 18 1 2 2 4 3 7 16 6 16 14 0 20z m-53-53c-23 0-42 19-42 43 0 24 19 43 42 43 24 0 43-19 43-43 0-24-19-43-43-43z"/>
<glyph glyph-name="target-relevant-audience" unicode="&#95;" d="M256 512c-141 0-256-115-256-256 0-141 115-256 256-256 141 0 256 115 256 256 0 141-115 256-256 256z m14-481c0 12-1 25-2 39-9 0-17 0-27 0 0-13 0-26 0-39-107 3-205 97-209 209 13 1 25 1 38 2 0 9 0 17 0 27-13 0-25 1-38 2 4 112 101 205 208 208 0-12 0-24 0-38 10 0 18 0 28 0 1 12 1 25 2 38 88 1 200-80 208-208-12-1-25-1-38-2 0-9 0-17 0-28 12 0 25 0 37 0 0-99-87-204-207-210z m-143 106c0 39 12 58 46 72 13 5 27 9 40 14 16 6 19 14 10 29-15 26-21 54-18 84 2 22 15 35 37 38 49 6 73-19 63-67-3-19-10-37-18-54-6-14-4-23 10-29 14-6 29-10 43-16 33-14 45-33 45-71-86 0-171 0-258 0z"/>
<glyph glyph-name="you-earn-while-they-learn" unicode="&#96;" d="M336 457c0 30-25 54-55 54-30 0-54-24-54-54 0-30 24-54 54-54 30 0 55 24 55 54z m104-127c-18-10-44-17-59-3-6 5-11 12-16 20-14 20-30 38-53 45-9 3-18 5-27 5l14-146-20-24-23 24 17 147c-5-1-11-1-16-2-3-1-5-1-7-2-10-2-20-5-29-10-17-10-27-24-36-37-5-8-10-15-16-20-15-14-42-7-59 3-9 5-21 2-27-7-5-9-2-21 7-26 17-10 37-16 57-16 17 0 34 5 48 18 9 8 16 17 22 26 5 8 10 14 15 19-1-16-3-56-5-97 0-1 0-2 0-2l-15-201c-25 7-42 19-42 32 0 10 11 20 29 27l1 11c-59-10-97-31-97-53 0-33 78-60 172-60 93 0 172 27 172 60 0 22-35 42-91 52l0-13c14-7 21-15 21-24 0-11-12-22-32-29-4 52-13 187-13 188-1 31-5 76-7 101 3-3 5-7 8-11 6-9 13-18 22-26 14-13 31-18 48-18 20 0 40 6 57 16 9 5 12 17 7 26-6 9-18 12-27 7z m-166-293c-4 0-8 0-12 0l12 158c2 1 3 1 5 1 2 0 4 0 6 0l10-158c-7-1-14-1-21-1z m212 389c-5 5-12 10-24 15l-5 2 0 28c8-1 16-3 24-6l2-1 8 20-2 1c-10 4-21 6-32 7l0 15-16 0 0-15c-11-1-19-5-25-10-7-6-11-13-11-22 0-8 3-15 8-20 4-6 12-10 22-14l6-2-1-30c-4 1-9 2-15 3-7 2-12 4-17 6l-3 2-1-24 2 0c9-5 20-7 34-7l0-19 16 0 0 19c12 2 21 5 27 11 6 6 10 13 10 22 0 8-2 14-7 19z m-45 23c-4 1-6 3-8 5-2 1-2 4-2 6 0 3 1 5 3 7 1 1 4 3 7 3z m16-54l0 23c3-2 6-3 8-5 2-2 3-4 3-7 0-2 0-8-11-11z m-309-18l-7 0 0 17 7 0 0 3 9 0 0 7-5 0 0 18 5 0 0 7-6 0 0 5-8 17 9 0 0 9-23 28-80 0-21-33c-4-3-6-7-6-12 0-9 7-16 16-16-6-2-10-8-10-14 0-5 2-9 5-12-8-1-14-7-14-16 0-8 7-15 16-15l113 0 0 7z m-119 66c0 3 2 6 5 8l103 0 0-17-99 0c-5 0-9 4-9 9z m14-21l102 0 0-18-102 0c-4 0-8 4-8 9 0 5 4 9 8 9z m91-45l-99 0c-5 0-9 4-9 8 0 5 4 9 9 9l99 0 0-17z"/>
<glyph glyph-name="portfolio-1" unicode="&#123;" d="M130 377c30 0 54 24 54 54 0 30-24 55-54 55-30 0-55-25-55-55 0-30 25-54 55-54z m114-161c-7 16-13 32-18 48-15 41-32 99-60 99l-73 0c-28 0-45-58-59-99-6-16-11-32-18-48-5-10-4-23 7-28 3-1 5-1 8-1 8 0 14 6 18 14 5 12 14 39 20 55 1 4 2 6 2-1l0-55c0-2 1-5 2-7 0-1 5-6 5-8l0-143c0-15 10-26 24-26 14 0 21 11 21 26l0 138c0 0 0 4 6 4l0 0c6 0 6-4 6-4l0-138c0-15 8-26 21-26 14 0 24 11 24 26l0 140c0 4 4 7 5 8 2 3 3 6 3 10l0 58c0 5 1 2 2 0 4-16 13-46 19-59 3-8 8-12 17-12 2 0 5 0 8 1 11 5 14 18 10 28z m-93 65l-18-17c-2-1-5-1-6 0l-18 17c-2 1-3 4-2 7l9 45c0 0 1 2 1 3-1 2-1 9-1 9 0 2 1 4 4 4l20 0c2 0 4-2 4-4 0 0-1-7-1-9 0-1 1-3 1-3l9-45c1-3 0-6-2-7z m185 148l72 0c5 0 5 4 5 4l0 14c0 0 0 4-5 4l-72 0c-16 0-29-13-29-28l0-158c0 0 1-3-2-3l-40 0c-4 0-4-4-4-4l0-14c0 0 0-4 4-4l40 0c3 0 2-4 2-4l0-157c0-16 13-29 29-29l72 0c0 0 5 0 5 5l0 13c0 5-5 5-5 5l-72 0c-4 0-6 3-6 6l0 156c0 0-1 5 3 5l76 0c4 0 4 3 4 3l0 15c0 0 0 4-4 4l-76 0c-4 0-3 4-3 4l0 157c0 3 2 6 6 6z m130-15c-2-2-5-3-8-1l-21 16c-3 2-3 5-1 8l4 6c2 2 5 3 8 1l8-6c2-2 6-2 8 0l17 19c2 2 6 2 8 0l5-5c3-2 3-5 1-8z m0-184c-2-2-5-3-8-1l-21 16c-3 2-3 5-1 8l4 6c2 2 5 3 8 1l8-6c2-2 6-2 8 1l17 18c2 2 6 2 8 0l5-5c3-2 3-5 1-7z m0-184c-2-2-5-2-8-1l-21 17c-3 1-3 5-1 7l4 6c2 3 5 3 8 1l8-6c2-2 6-1 8 1l17 18c2 2 6 3 8 1l5-6c3-2 3-5 1-7z"/>
<glyph glyph-name="lms" unicode="&#124;" d="M349 363c0-52-42-94-94-94-52 0-94 42-94 94 0 52 42 94 94 94 52 0 94-42 94-94z m-71-142l-23 34-24-34z m214-129c0 1 0 1 0 1 0 1 0 1 0 1 0 0 0 1 0 1 0 0 0 1-1 1 0 0 0 1 0 1 0 0 0 0 0 1 0 0 0 0 0 0 0 1 0 1 0 1 0 1 0 1 0 1-1 0-1 1-1 1 0 0 0 1 0 1 0 0 0 1 0 1 0 0-1 0-1 1 0 0 0 0 0 0 0 1 0 1 0 1 0 0-1 1-1 1 0 0 0 1 0 1 0 0 0 0-1 1 0 0 0 0 0 0 0 1 0 1 0 1-1 0-1 1-1 1 0 0 0 0 0 1-1 0-1 0-1 0 0 1 0 1 0 1-1 0-1 1-1 1 0 0 0 0-1 1 0 0 0 0 0 0l-116 135c-7 9-17 13-27 13l-3 0-10-41 40 0c11 0 13 11 13 0l0-145c0-13-10-9-13-13l-22-4c6 2 9 11 9 17l0 105c0 8-6 13-14 13l-170 0c-8 0-13-5-13-13l0-105c0-6 3-15 8-17l-22 4c-3 4-13 0-13 13l0 131c-7 16 2 14 13 14l40 0-11 41c0 0-5 0-6 0-9-1-18-5-24-13l-116-135c0 0 0 0 0 0 0-1-1-1-1-1 0 0 0-1 0-1 0 0-1 0-1-1 0 0 0 0 0 0-1-1-1-1-1-1 0 0 0-1 0-1 0 0-1 0-1-1 0 0 0 0 0 0 0-1 0-1-1-1 0 0 0-1 0-1 0 0 0-1 0-1-1 0-1 0-1-1 0 0 0 0 0 0 0-1 0-1 0-1-1-1-1-1-1-1 0 0 0-1 0-1 0 0 0-1 0-1 0 0 0 0 0-1-1 0-1 0-1-1 0 0 0 0 0 0 0-1 0-1 0-1 0 0 0-1 0-1 0 0 0-1 0-1 0 0 0-1 0-1 0 0 0 0 0-1-1 0-1 0-1-1 0 0 0 0 0 0l0-3c0 0 0 0 0 0 0-1 0-1 0-1 0 0 0-1 1-1 0 0 0-1 0-1 0 0 0 0 0-1 0 0 0 0 0-1 0 0 0 0 0 0 0-1 0-1 0-2 0 0 0 0 0 0 0 0 1-1 1-1 0 0 0-1 0-1 0 0 0-1 0-1 0 0 0 0 0 0 0-1 1-1 1-2 0 0 0 0 0 0 0-1 0-1 0-1 0 0 1-1 1-1 0 0 0 0 0-1 0 0 0 0 1-1 0 0 0 0 0 0 0-1 0-1 0-1 1 0 1-1 1-1 0 0 0 0 0-1 0 0 1 0 1 0 0-1 0-1 0-1 0 0 1 0 1-1 0 0 0 0 0-1 1 0 1 0 1 0 0 0 0-1 1-1 0 0 0 0 0 0 0-1 0-1 1-1 0 0 0-1 0-1 1 0 1 0 1 0 0-1 0-1 1-1 0 0 0 0 0 0 0 0 0 0 0 0 1-1 1-1 1-1 0 0 0 0 1-1 0 0 0 0 1 0 0 0 0-1 0-1 0 0 1 0 1 0 0 0 0-1 1-1 0 0 0 0 1 0 0 0 0 0 0 0l-19 0 0-21 475 0 0 21-18 0c0 0 0 0 0 0 0 0 0 0 1 0 0 0 0 1 0 1 0 0 1 0 1 0 0 0 0 1 1 1 0 0 0 0 1 0 0 1 0 1 0 1 0 0 1 0 1 1 0 0 0 0 0 0 0 0 0 0 0 0 1 0 1 0 1 1 0 0 1 0 1 0 0 0 0 1 1 1 0 0 0 0 0 1 0 0 1 0 1 0 0 0 0 1 0 1 1 0 1 0 1 0 0 1 0 1 1 1 0 1 0 1 0 1 0 0 0 0 1 1 0 0 0 0 0 0 0 1 0 1 1 1 0 0 0 1 0 1 0 0 0 0 0 1 1 0 1 0 1 0 0 1 0 1 0 1 0 1 0 1 1 1 0 0 0 1 0 1 0 0 0 0 0 1 0 0 0 0 1 0 0 1 0 1 0 2 0 0 0 0 0 0 0 0 0 1 0 1 1 0 1 1 1 1 0 0 0 1 0 1 0 0 0 0 0 0 0 1 0 1 0 2 0 0 0 0 0 0 0 1 1 1 1 1 0 1 0 1 0 1 0 0 0 1 0 1 0 0 0 1 0 1 0 0 0 0 0 1 0 0 0 0 0 0l0 3c0 0 0 0 0 0z m-230 10c-15 0-27 12-27 27 0 14 12 26 27 26 14 0 26-12 26-26 0-15-12-27-26-27z"/>
<glyph glyph-name="puzzle" unicode="&#125;" d="M407 285c11 0 22-4 31-12 18-11 24 1 24 12l0 56c0 26-21 48-47 48l-88 0c-12 0-23 7-13 24 8 9 13 20 13 32 0 31-32 56-72 56-40 0-72-25-72-56 0-10 3-19 8-26 17-22 5-30-8-30l-87 0c-27 0-48-22-48-48l0-56c0-12 8-24 29-7 8 4 17 7 27 7 30 0 55-32 55-71 0-40-25-72-55-72-12 0-23 4-32 12-17 11-24-1-24-12l0-88c0-26 21-48 48-48l87 0c13 0 25 8 8 30-5 8-8 16-8 26 0 31 32 56 72 56 40 0 72-25 72-56 0-12-5-22-13-31-10-18 2-25 13-25l88 0c26 0 47 22 47 48l0 88c0 12-8 24-29 8-8-5-17-8-26-8-31 0-56 32-56 72 0 39 25 71 56 71z"/>
<glyph glyph-name="percentage-share" unicode="&#126;" d="M53 261c0 0 0 0 0 0 0-1 0-1 0-1z m245-22c-6 0-11-2-15-6-3-4-5-9-5-14 0-10 6-21 21-21 6 0 11 3 15 7 3 3 5 8 5 14 0 10-6 20-21 20z m-81 50c6 0 11 2 15 6 3 4 5 9 5 14 0 10-6 21-21 21-14 0-21-10-21-20 0-10 7-21 22-21z m38 127c-89 0-162-73-162-163 0-89 73-162 162-162 90 0 162 73 162 162 0 90-72 163-162 163z m-70-91c7 8 17 12 29 12 26 0 40-20 40-39 0-10-3-19-10-26-7-8-17-12-30-12-26 0-39 19-39 38 0 10 3 20 10 27z m24-138c-1-1-5-3-7-3l-17 0c-2 0-3 2-1 3l118 132c2 1 5 3 7 3l17 0c2 0 3-1 1-3z m116-5c-7-8-17-12-29-12-25 0-38 19-38 38 0 10 3 19 9 26 7 7 17 11 29 11 26 0 39-19 39-37 0-10-3-19-10-26z m140 3c7 23 42 43 42 68 0 26-35 46-42 69-8 23 8 60-6 80-15 20-54 15-74 30-20 14-28 53-52 61-23 8-52-19-78-19-25 0-55 27-78 19-24-8-32-47-51-61-20-15-60-10-75-30-14-20 2-57-6-80-7-23-42-43-42-69 0-25 35-45 42-68 8-24-8-60 6-80 15-20 55-15 75-30 19-14 27-54 51-61 23-8 53 19 78 19 26 0 55-27 78-19 24 7 32 47 52 61 20 15 59 10 74 30 14 20-2 56 6 80z m-210-118c-103 0-186 84-186 186 0 103 83 187 186 187 103 0 187-84 187-187 0-102-84-186-187-186z"/>
<glyph glyph-name="info-circled" unicode="&#92;" d="M253 492c65 0 120-22 167-67 46-45 70-100 72-165 0-65-22-121-68-167-45-47-100-71-165-73-65 0-121 22-167 68-47 45-71 100-72 165-1 65 21 121 67 167 46 47 101 71 166 72m27-78c-15 0-26-4-34-13-8-8-12-16-12-25 0-10 2-17 8-23 6-5 14-8 25-8 13 0 24 4 31 11 8 8 12 17 12 28 0 20-10 30-30 30m-62-304c10 0 25 4 43 13 19 9 37 22 54 40 0 0-9 12-9 12-16-12-28-18-37-18-4 0-5 6-2 19 0 0 22 82 22 82 9 33 5 49-11 49-11 0-26-5-46-15-20-10-40-22-59-38 0 0 8-13 8-13 18 11 31 17 38 17 4 0 4-6 0-17 0 0-18-78-18-78-9-36-3-53 17-53"/>
<glyph glyph-name="glyphicons-halflings-regular" unicode="&#57344;" d="M1 256c0 46 12 89 34 128 23 39 54 70 93 93 39 22 82 34 128 34 46 0 89-12 128-34 39-23 70-54 93-93 22-39 34-82 34-128 0-46-12-89-34-128-23-39-54-70-93-93-39-22-82-34-128-34-46 0-89 12-128 34-39 23-70 54-93 93-22 39-34 82-34 128z m170-128l170 0 0 43-42 0 0 128-128 0 0-43 42 0 0-85-42 0z m42 213l86 0 0 43-86 0z"/>
<glyph glyph-name="earth-globe-streamline" unicode="&#57345;" d="M235 139c100 0 181 81 181 181 0 100-81 181-181 181-100 0-182-81-182-181 0-100 82-181 182-181z m0 341c88 0 160-72 160-160 0-88-72-160-160-160-88 0-160 72-160 160 0 88 72 160 160 160z m166-326c89 89 91 232 7 324l8 8c4 4 4 11 0 15-4 4-11 4-15 0l-31-30c-4-4-4-11 0-15 3-2 5-3 8-3 3 0 6 1 8 3l7 7c75-84 73-213-7-294-81-80-211-83-294-7l7 7c4 4 4 11 0 15-4 4-11 4-15 0l-30-30c-4-4-4-11 0-15 2-2 5-3 7-3 3 0 6 1 8 3l8 8c39-36 87-56 136-61l0-23c-40-4-79-19-112-44l-26-19 319 0-25 19c-34 25-72 40-113 44l0 23c53 5 104 28 145 68z m-256-133c27 14 58 22 90 22 31 0 62-8 90-22z"/>
<glyph glyph-name="eat-food-fork-knife-streamline" unicode="&#57346;" d="M331 512c-6 0-11-5-11-11 0 0 0 0 0 0l0-490c0-6 5-11 11-11 6 0 10 5 10 11l0 170 54 0c6 0 10 5 10 11 0 155-30 320-74 320z m10-309l0 274c18-33 42-130 43-274z m-96 309c-6 0-10-5-10-11l0-106c0-26-19-48-43-53l0 159c0 6-5 11-11 11-6 0-10-5-10-11l0-159c-25 5-43 27-43 53l0 106c0 6-5 11-11 11-6 0-10-5-10-11l0-106c0-38 28-69 64-74l0-310c0-6 4-11 10-11 6 0 11 5 11 11l0 310c36 5 64 36 64 74l0 106c0 6-5 11-11 11z"/>
<glyph glyph-name="eat-food-hotdog-streamline" unicode="&#57347;" d="M158 158c-2 2-3 5-3 8 0 2 1 5 3 7 4 4 11 4 15 0 12-12 33-12 45 0 6 6 10 14 10 23 0 8-4 16-10 22-4 4-4 11 0 15 4 4 11 4 15 0 6-6 14-9 23-9 0 0 0 0 0 0 9 0 17 3 23 9 6 6 9 14 9 23 0 9-3 17-9 23-2 2-3 4-3 7 0 3 1 6 3 8 2 2 4 3 7 3 0 0 0 0 0 0 3 0 6-1 8-3 12-13 33-13 45 0 12 12 12 32 0 45-2 2-3 5-3 8 0 2 1 5 3 7 4 4 11 4 15 0 12-12 33-12 45 0 6 6 10 14 10 23 0 8-4 16-10 22-4 4-4 11 0 15 4 5 11 5 15 0 5-4 11-4 15 0 5 5 5 11 1 15-13 13-33 13-46 0-12-12-12-32 0-45 2-2 3-4 3-7 0-3-1-6-3-8-4-4-11-4-15 0-12 12-33 12-45 0-6-6-9-14-9-22 0-9 3-17 9-23 4-4 4-11 0-15-4-4-11-4-15 0-6 6-14 9-23 9 0 0 0 0 0 0-8 0-16-3-22-9-7-6-10-14-10-23 0-8 3-16 10-22 2-2 3-5 3-8 0-3-1-6-3-8-2-2-5-3-8-3-3 0-6 1-8 3-12 13-33 13-45 0-12-12-12-32 0-45 4-4 4-11 0-15-4-4-11-4-15 0-12 12-33 12-45 0-6-6-10-14-10-23 0-8 4-16 10-22 4-4 4-11 0-15-4-4-11-4-15 0-13 12-33 12-45 0-13-13-13-33 0-45 2-3 4-4 7-4 3 0 6 1 8 4 4 4 4 10 0 15-5 4-5 11 0 15 4 4 11 4 15 0 12-13 32-13 45 0 12 12 12 32 0 45z m322 235c4 24-2 49-20 67-14 14-33 22-53 22-5 0-9-1-13-2-48 40-100 41-138 2l-226-226c-32-31-44-87 2-137-4-24 2-49 20-67 14-14 33-22 53-22 5 0 9 1 14 2 20-20 44-30 70-30 0 0 0 0 0 0 25 0 49 10 67 28l226 226c32 32 44 87-2 137z m-435-152l226 226c28 28 63 29 99 5-6-4-11-8-16-12l-302-302c-5-5-9-10-12-16-27 37-19 76 5 99z m22-174c-20 21-20 55 0 76l302 302c10 10 24 15 38 15 14 0 27-5 38-15 20-21 20-55 0-76l-302-302c-10-10-24-15-38-15-14 0-27 5-38 15z m400 204l-226-226c-14-14-33-22-52-22-17 0-33 6-47 17 6 3 11 7 16 12l302 302c5 5 9 10 12 16 29-40 17-77-5-99z"/>
<glyph glyph-name="edit-modify-streamline" unicode="&#57348;" d="M384 267c-6 0-11-5-11-11l0-235-352 0 0 427 288 0c6 0 11 5 11 11 0 6-5 10-11 10l-309 0 0-469 395 0 0 256c0 6-5 11-11 11z m126 224c-6 13-18 21-31 21-8 0-16-3-22-10l-30-30c0 0 0 0 0 0 0 0 0 0 0 0l-174-173c0-1-1-2-2-3l-30-60c-2-5-1-10 2-13 2-2 5-3 8-3 1 0 3 0 5 1l60 30c1 1 2 2 3 2l203 204c10 10 13 22 8 34z m-225-221l-30-15 15 30 164 165 16-16z m202 202l-22-22-15 15 22 22c2 3 5 4 7 4 5 0 9-4 11-8 2-4 1-7-3-11z"/>
<glyph glyph-name="happy-smiley-streamline" unicode="&#57349;" d="M256 512c-141 0-256-115-256-256 0-141 115-256 256-256 141 0 256 115 256 256 0 141-115 256-256 256z m0-491c-129 0-235 106-235 235 0 129 106 235 235 235 129 0 235-106 235-235 0-129-106-235-235-235z m160 224c-6 0-11-4-11-10 0-83-67-150-149-150-82 0-149 67-149 150 0 6-5 10-11 10-6 0-11-4-11-10 0-94 77-171 171-171 94 0 171 77 171 171 0 6-5 10-11 10z m-299 43c6 0 11 5 11 11 0 17 14 32 32 32 18 0 32-15 32-32 0-6 5-11 11-11 6 0 10 5 10 11 0 29-24 53-53 53-29 0-53-24-53-53 0-6 4-11 10-11z m192 0c6 0 11 5 11 11 0 17 14 32 32 32 18 0 32-15 32-32 0-6 5-11 11-11 6 0 10 5 10 11 0 29-24 53-53 53-29 0-53-24-53-53 0-6 4-11 10-11z"/>
<glyph glyph-name="headset-sound-streamline" unicode="&#57350;" d="M512 128c0 26-18 47-43 52l0 1c0 22-13 41-32 49l0 26c0 100-81 181-181 181-100 0-181-81-181-181l0-23c-19-5-32-21-32-41l0-12c-25-5-43-26-43-52 0-26 18-47 43-52l0-12c0-24 19-43 42-43l22 0c23 0 42 19 42 43l0 128c0 24-19 43-42 43l-11 0 0 21c0 88 72 160 160 160 88 0 160-72 160-160l0-21c-29 0-53-24-53-54l0-106c0-30 24-54 53-54 29 0 53 24 53 54l0 1c25 5 43 26 43 52z m-491 0c0 14 9 26 22 30l0-60c-13 4-22 16-22 30z m107 64l0-128c0-12-10-21-21-21l-22 0c-11 0-21 9-21 21l0 128c0 12 10 21 21 21l22 0c11 0 21-9 21-21z m320-117c0-18-14-32-32-32-18 0-32 14-32 32l0 106c0 18 14 32 32 32 18 0 32-14 32-32z m21 23l0 60c13-4 22-16 22-30 0-14-9-26-22-30z"/>
<glyph glyph-name="home-house-streamline" unicode="&#57351;" d="M437 224c-6 0-10-5-10-11l0-192-107 0 0 139-128 0 0-139-107 0 0 203c0 6-4 11-10 11-6 0-11-5-11-11l0-224 149 0 0 139 86 0 0-139 149 0 0 213c0 6-5 11-11 11z m72 18l-253 242-253-242c-4-4-4-10 0-15 4-4 11-4 15 0l238 228 238-228c2-2 5-3 7-3 3 0 6 1 8 3 4 5 4 11 0 15z m-168 185l64 0 0-64c0-6 5-11 11-11 6 0 11 5 11 11l0 85-86 0c-6 0-10-5-10-11 0-6 4-10 10-10z"/>
<glyph glyph-name="ibook-laptop" unicode="&#57352;" d="M427 448l-342 0 0-213 342 0z m-22-192l-298 0 0 171 298 0z m-50-171l-16 64-166 0-16-64z m-165 43l132 0 6-21-144 0z m279 87l0 233c0 24-19 43-42 43l-342 0c-23 0-42-19-42-43l0-244-43-148 0-13c0-24 19-43 43-43l426 0c24 0 43 19 43 43l0 10z m-384 254l342 0c11 0 21-9 21-21l0-235-384 0 0 235c0 12 10 21 21 21z m-24-277l393 0 33-128-462 0z m408-171l-426 0c-12 0-22 10-22 22l470 0c0-12-10-22-22-22z"/>
<glyph glyph-name="link-streamline" unicode="&#57353;" d="M256 165l-68-67c-10-10-23-16-38-16-14 0-27 6-37 16l-15 15c-21 20-21 54 0 75l98 98c10 10 23 16 37 16 15 0 28-6 38-16l15-15c4-4 11-4 15 0 4 4 4 11 0 15l-15 15c-14 14-33 22-53 22-20 0-38-8-52-22l-98-98c-30-29-30-76 0-105l15-15c14-15 32-22 52-22 20 0 39 7 53 22l68 67c4 5 4 11 0 15-4 5-11 5-15 0z m173 249l-15 15c-29 30-76 30-105 0l-68-67c-4-5-4-11 0-15 4-5 11-5 15 0l68 67c21 21 55 21 75 0l15-15c21-20 21-54 0-75l-98-98c-10-10-23-16-37-16-15 0-28 6-38 16-4 4-11 4-15 0-4-4-4-11 0-15 14-14 33-22 53-22 20 0 38 8 52 22l98 98c30 29 30 76 0 105z"/>
<glyph glyph-name="lock-locker-streamline" unicode="&#57354;" d="M245 174l0-57c0-6 5-10 11-10 6 0 11 4 11 10l0 57c6 3 10 10 10 18 0 12-9 21-21 21-12 0-21-9-21-21 0-8 4-15 10-18z m139 146l0 64c0 71-57 128-128 128-71 0-128-57-128-128l0-64-64 0 0-320 384 0 0 320z m-235 64c0 59 48 107 107 107 59 0 107-48 107-107l0-64-214 0z m278-363l-342 0 0 278 342 0z"/>
<glyph glyph-name="locker-streamline-unlock" unicode="&#57355;" d="M245 174l0-57c0-6 5-10 11-10 6 0 11 4 11 10l0 57c6 3 10 10 10 18 0 12-9 21-21 21-12 0-21-9-21-21 0-8 4-15 10-18z m139 146l0 64c0 71-57 128-128 128-71 0-128-57-128-128l21 0c0 59 48 107 107 107 59 0 107-48 107-107l0-64-299 0 0-320 384 0 0 320z m43-299l-342 0 0 278 342 0z"/>
<glyph glyph-name="macintosh" unicode="&#57356;" d="M405 512l-298 0c-36 0-64-29-64-64l0-352c0-14 9-26 21-30l0-55c0-6 5-11 11-11l362 0c6 0 11 5 11 11l0 55c12 4 21 16 21 30l0 352c0 35-28 64-64 64z m22-491l-342 0 0 43 342 0z m21 75c0-6-5-11-11-11l-362 0c-6 0-11 5-11 11l0 352c0 24 19 43 43 43l298 0c24 0 43-19 43-43z m-57 373l-270 0c-20 0-36-13-36-30l0-217c0-17 16-30 36-30l270 0c20 0 36 13 36 30l0 217c0 17-16 30-36 30z m14-247c0-4-5-9-14-9l-270 0c-9 0-14 5-14 9l0 217c0 4 5 9 14 9l270 0c9 0 14-5 14-9z m-256-73l-42 0c-6 0-11-4-11-10 0-6 5-11 11-11l42 0c6 0 11 5 11 11 0 6-5 10-11 10z m256 0l-106 0c-6 0-11-4-11-10 0-6 5-11 11-11l106 0c6 0 11 5 11 11 0 6-5 10-11 10z m-213 246c0 6-5 10-11 10-6 0-10-4-10-10l0-43c0-6 4-11 10-11 6 0 11 5 11 11z m139 10c-6 0-11-4-11-10l0-43c0-6 5-11 11-11 6 0 10 5 10 11l0 43c0 6-4 10-10 10z m-86-106l22 0c6 0 10 4 10 10l0 64c0 6-4 11-10 11-6 0-11-5-11-11l0-53-11 0c-6 0-10-5-10-11 0-6 4-10 10-10z m64-22c-6 0-10-4-10-10 0-6-5-11-11-11l-64 0c-6 0-11 5-11 11 0 6-4 10-10 10-6 0-11-4-11-10 0-18 14-32 32-32l64 0c18 0 32 14 32 32 0 6-5 10-11 10z"/>
<glyph glyph-name="notebook-streamline" unicode="&#57357;" d="M331 427l-150 0 0-107 150 0z m-22-86l-106 0 0 64 106 0z m139 118l-11 0 0 53-384 0 0-85-21 0 0-22 21 0 0-42-21 0 0-22 21 0 0-42-21 0 0-22 21 0 0-42-21 0 0-22 21 0 0-42-21 0 0-22 21 0 0-42-21 0 0-22 21 0 0-85 384 0 0 96 11 0c24 0 43 19 43 43l0 277c0 24-19 43-43 43z m0-22c12 0 21-9 21-21l0-43-32 0 0 64z m-11-149l0 64 32 0 0-64z m32-21l0-64-32 0 0 64z m-53-246l-341 0 0 64 21 0 0 22-21 0 0 42 21 0 0 22-21 0 0 42 21 0 0 22-21 0 0 42 21 0 0 22-21 0 0 42 21 0 0 22-21 0 0 42 21 0 0 22-21 0 0 64 341 0z m32 96l-11 0 0 64 32 0 0-42c0-12-9-22-21-22z"/>
<glyph glyph-name="paint-bucket-streamline" unicode="&#57358;" d="M480 277c0 26-18 48-43 53l0 22c0 88-71 160-160 160l-64 0c-88 0-160-72-160-160l0-22c-24-5-42-27-42-53 0-25 18-47 42-52l0-166c0-41 100-59 192-59 93 0 192 18 192 59l0 166c25 5 43 27 43 52z m-267 214l64 0c68 0 125-50 137-114-35 19-104 28-169 28-65 0-133-9-168-28 12 64 68 114 136 114z m32-107c111 0 171-25 171-37 0-13-60-38-171-38-110 0-170 25-170 38 0 12 60 37 170 37z m-213-107c0 14 9 26 21 31l0-61c-12 5-21 16-21 30z m384-218c0-13-60-38-171-38-110 0-170 25-170 38l0 259c34-20 104-30 170-30 67 0 137 10 171 30z m21 188l0 61c13-5 22-17 22-31 0-14-9-25-22-30z m-56 15c-6-2-13-4-21-6l-8-1 0-95c0-18-14-32-32-32-8 0-17 3-23 9-6 6-9 14-9 23 0 21 0 43 0 59l0 26-64 0 0-42c0-12-10-22-21-22-12 0-22 10-22 22l0 47-10 1c-22 1-43 5-61 10-6 2-12-1-14-7-1-5 2-11 7-13 17-5 37-9 57-11l0-27c0-24 19-43 43-43 23 0 42 19 42 43l0 21 22 0 0-5c0-16 0-38 0-59 0-14 5-28 15-38 10-10 24-15 38-15 29 0 53 24 53 53l0 78c5 1 10 2 14 4 6 1 9 7 7 13-2 6-7 9-13 7z"/>
<glyph glyph-name="painting-pallet-streamline" unicode="&#57359;" d="M267 501c-124 0-224-115-224-256 0-176 149-235 217-235l0 0c15 0 34 2 44 14 5 6 7 13 5 21-11 53-2 87 9 101 4 5 8 7 13 7 9 0 21-9 31-25 14-20 30-30 46-30 51 0 83 97 83 147 0 149-95 256-224 256z m141-382c-11 0-21 12-28 22-19 27-37 33-49 33-11 0-22-5-30-15-18-22-23-67-13-118 1-2 0-3 0-3-3-3-12-7-28-7l0 0c-61 0-196 54-196 214 0 130 91 235 203 235 117 0 202-99 202-235 0-51-32-126-61-126z m-205 62c-30 0-54-24-54-53 0-29 24-53 54-53 29 0 53 24 53 53 0 29-24 53-53 53z m0-85c-18 0-32 14-32 32 0 18 14 32 32 32 17 0 32-14 32-32 0-18-15-32-32-32z m-22 171c0 11-4 22-12 30-8 8-19 12-30 12-12 0-22-4-30-12-9-8-13-19-13-30 0-24 19-43 43-43 0 0 0 0 0 0 11 0 22 4 30 13 8 8 12 18 12 30z m-27-15c-4-4-10-7-15-7l0-10 0 10c-12 0-22 10-22 22 0 5 3 11 7 15 4 4 9 6 15 6 5 0 11-2 15-6 4-4 6-10 6-15 0-6-2-11-6-15z m38 68c0 0 0 0 0 0 11 0 22 4 30 13 8 8 13 18 13 30 0 11-5 22-13 30-8 8-19 12-30 12-11 0-22-4-30-12-8-8-13-19-13-30 0-24 19-43 43-43z m-15 58c4 4 9 6 15 6 6 0 11-2 15-6 4-4 6-10 6-15 0-6-2-11-6-15-4-4-9-7-15-7l0-10 0 10c-12 0-21 10-21 22 0 5 2 11 6 15z m111 70c-11 0-22-4-30-13-8-8-13-18-13-30 0-23 19-42 43-42 0 0 0 0 0 0 11 0 22 4 30 12 8 8 13 19 13 30 0 12-5 22-13 30-8 9-19 13-30 13z m15-58c-4-4-9-6-15-6l0-11 0 11c-12 0-21 10-21 21 0 6 2 11 6 15 4 4 9 7 15 7 6 0 11-3 15-7 4-4 6-9 6-15 0-5-2-11-6-15z m81-17c-11 0-22-4-30-12-8-8-13-19-13-30 0-24 19-43 43-43 0 0 0 0 0 0 11 0 22 4 30 13 8 8 13 18 13 30 0 11-5 22-13 30-8 8-19 12-30 12z m15-57c-4-4-9-7-15-7l0-10 0 10c-12 0-21 10-21 22 0 5 2 11 6 15 4 4 9 6 15 6 6 0 11-2 15-6 4-4 6-10 6-15 0-6-2-11-6-15z"/>
<glyph glyph-name="painting-roll-streamline" unicode="&#57360;" d="M448 427l-21 0 0 21c0 24-19 43-43 43l-256 0c-24 0-43-19-43-43l0-21c-27 0-42-16-42-43l0-43c0-27 15-42 42-42l160 0c6 0 11-5 11-11l0-87c-20-4-32-23-32-52l0-117c0-18 14-32 32-32l21 0c18 0 32 14 32 32l0 117c0 29-11 48-32 52l0 87c0 18-14 32-32 32l-160 0c-15 0-21 6-21 21l0 43c0 15 6 21 21 21l0-21c0-24 19-43 43-43l256 0c24 0 43 19 43 43l0 21 21 0z m-160-278l0-117c0-6-5-11-11-11l-21 0c-6 0-11 5-11 11l0 117c0 32 16 32 22 32 5 0 21 0 21-32z m117 235c0-12-9-21-21-21l-256 0c-12 0-21 9-21 21l0 64c0 12 9 21 21 21l256 0c12 0 21-9 21-21z"/>
<glyph glyph-name="mr" unicode="&#57361;" d="M413 490l-315 0c-44 0-79-36-79-79l0-315c0-44 35-79 79-79l315 0c43 0 78 36 78 79l0 315c0 43-35 79-78 79z m-335-316c0 75 0 151 0 227 98 0 195 0 293 0 0-33 0-66 0-99-9 3-19 5-30 8 0 20 0 40 0 61-78 0-156 0-233 0 0-56 0-111 0-167 3 0 5 0 8 0 38 0 76-1 114 0 5 0 8-1 9-7 0-8 3-15 5-23-55 0-110 0-166 0z m166 99c0-12 0-24 0-36-9 0-19 0-29 0 0 12 0 23 0 36 9 0 19 0 29 0z m-43 63c0-33 0-66 0-99-10 0-20 0-30 0 0 33 0 66 0 99 10 0 20 0 30 0z m-43-35c0-21 0-42 0-64-11 0-20 0-30 0-1 3-1 5-1 7 0 19 0 38 0 57 11 0 20 0 31 0z m-5-175c7 7 14 13 19 20 7 8 15 11 25 10 18 0 36 0 53 0 3 0 5-1 7-2 10-10 21-19 30-28-43 0-88 0-134 0z m263-20c-14 13-27 27-41 41-4 4-7 5-12 2-28-13-59-7-80 15-20 21-26 53-13 79 12 27 41 43 71 40 48-5 77-58 55-101-1-2-2-4-3-7 16-16 31-31 47-46-9-8-16-15-24-23z m-83 151c-24 0-44-20-44-44 1-24 20-44 44-44 24 0 44 20 44 44 1 24-20 44-44 44z"/>
<glyph glyph-name="wrench" unicode="&#57362;" d="M128 91c0 5-2 10-5 13-4 4-8 6-13 6-5 0-10-2-13-6-4-3-6-8-6-13 0-5 2-9 6-12 3-4 8-6 13-6 5 0 9 2 13 6 3 3 5 7 5 12z m184 120l-195-194c-7-7-15-11-26-11-9 0-18 4-26 11l-30 30c-7 7-11 16-11 26 0 10 4 19 11 26l195 195c7-19 18-35 32-50 15-14 31-25 50-33z m181 125c0-8-2-18-6-31-9-25-25-46-47-62-23-16-47-24-74-24-36 0-66 13-91 38-25 25-37 55-37 90 0 36 12 66 37 91 25 25 55 37 91 37 11 0 22-1 34-4 13-3 23-8 31-14 3-2 5-4 5-8 0-3-2-5-5-8l-84-48 0-64 56-30c1 0 8 5 22 13 14 9 27 17 39 24 12 6 18 10 20 10 3 0 5-1 7-3 1-2 2-4 2-7z"/>
<glyph glyph-name="countries" unicode="&#57363;" d="M242 416c-15 0-31-3-45-9-14-5-26-13-38-25-12-12-20-25-26-39-6-14-8-29-8-44 0-5 3-8 8-8 5 0 8 3 8 8 0 12 2 26 7 39 6 12 12 24 23 33 9 10 21 17 33 23 13 5 25 7 39 7 4 0 8 3 8 9-1 3-5 6-9 6z m209-110c0 8-1 14-2 21-1 7-2 14-4 21-1 6-3 13-6 19l0 1c-2 6-4 13-7 19-3 7-5 12-10 18-3 7-7 12-10 17-5 6-9 11-13 16-4 6-10 11-14 15-5 5-11 10-16 14-6 4-12 9-17 12-5 3-12 6-18 10l-1 0c-7 3-13 6-20 8-7 2-14 4-21 6-7 3-14 4-21 5-8 1-15 2-21 2-5 0-9-3-9-8 0-4 2-8 6-8 7 0 20-1 20-2 10-1 8-2 12-2l-6-25c-20 4-39 5-59 3-22-3-44-10-64-22-19-12-37-27-51-45-14-17-23-38-30-61-6-22-7-46-4-67 3-22 11-45 21-64 12-19 27-37 45-51 16-12 33-21 54-28l-7-24c-4 1-7 2-12 3-6 2-12 5-18 8-4 2-8 0-10-3-3-4 0-8 3-11 6-3 13-6 20-8 6-2 14-4 20-6 8-3 14-4 22-5 7-1 11-2 19-2 2 0 2 0 2 0l0-33c0-4 6-7 11-7 0 0 1 0 1 0 0 0 1 0 1 0 17 0 53-11 62-21l-128 0c2 2 18 11 27 14 5 1 7 7 6 11-1 4-7 6-11 5-11-3-20-8-30-15-9-6-17-14-24-21-4-3-4-9 1-12 1-1 3-2 5-2l185 0c4 0 8 3 8 9 0 2-1 4-2 6-12 14-28 25-44 32-14 6-30 10-46 11l0 34c0 4-4 8-8 8-4 0-8 0-12 0-6 0-14 1-20 2-4 2-8 2-12 3l7 24c20-4 40-5 59-3 23 3 45 11 64 21 19 12 38 27 51 45 14 17 24 38 30 61 7 22 8 46 5 67-4 22-11 45-22 64-11 19-26 37-45 51-16 12-33 22-53 28l7 25c4-2 7-3 11-4 7-2 13-5 18-8l1 0c6-3 11-7 16-10 6-3 11-7 16-12 6-4 10-8 15-12 5-5 10-10 13-14 4-6 9-10 12-15 3-5 7-11 11-16 3-5 6-11 8-17 2-6 5-12 8-18l0-1c2-6 4-12 5-19 1-6 2-12 3-19 1-6 1-13 2-19 0-6 0-13 0-19 0-7-1-13-2-20-1-7-2-13-4-21-2-6-4-10-7-17-2-6-13-30-18-35-3-5-7-12-11-17-5-5-9-11-13-15-4-4-10-10-14-14-5-4-10-8-15-12-5-3-11-7-16-10-5-3-12-7-17-9-5-2-12-5-18-7-4-1-9-3-13-4-4-2-9-3-13-4-4-1-7-5-6-9 1-5 5-8 9-7 5 1 9 2 14 4 6 1 10 3 14 4 7 2 13 4 19 7 7 3 13 7 18 10 7 3 12 7 18 11 5 4 10 8 16 12 5 5 10 10 14 14 5 6 10 11 14 16 5 6 9 12 12 17 4 7 8 12 11 18 3 7 6 13 8 21 2 6 5 14 7 20 2 7 3 14 4 21 1 8 2 15 2 22 2 10 2 17 2 24z m-118 116c17-12 30-28 40-45 11-19 17-38 21-59 2-20 1-41-5-61-5-20-15-39-26-55-13-16-29-30-46-41-18-11-38-17-59-20-20-2-40-1-61 4-20 5-39 15-55 27-16 13-30 29-41 46-10 18-17 37-20 58-2 21-1 41 4 61 6 20 15 40 27 56 13 16 29 29 46 40 18 11 37 17 59 20 20 2 40 1 60-4 22-5 40-15 56-27z"/>
<glyph glyph-name="partners" unicode="&#57364;" d="M192 373l64 0 0-64 21 0 0 64 54 0 0-64 21 0 0 166c0 18-12 37-30 37l-208 0c-19 0-29-19-29-37l0-441c0-18 10-34 29-34l78 0 0 149 21 0 0 22-21 0 0 85 21 0 0 21-21 0z m85 118l45 0c7 0 9-10 9-16l0-80-54 0z m-85 0l64 0 0-96-64 0z m-21-470l-57 0c-7 0-7 7-7 13l0 115 64 0z m0 150l-64 0 0 85 64 0z m0 106l-64 0 0 96 64 0z m0 118l-64 0 0 80c0 6 0 16 7 16l57 0z m228-96l-146 0c-15 0-18-4-18-53l0-246c44 0 74 0 74 0l0 75 32 0 0-75 58 0c15 0 17 0 28 0l0 247c0 48-13 52-28 52z m-111-278l-32 0c0 2 0 54 0 54l32 0z m0 75l-32 0 0 53 32 0z m0 75l-32 0 0 42 32 0z m0 64l-32 0 0 42 32 0z m53-139l-32 0 0 53 32 0z m0 75l-32 0 0 42 32 0z m0 64l-32 0 0 42 32 0z m22 42l42 0 0-42-42 0z m0-64l42 0 0-42-42 0z m0-64l42 0 0-53-42 0z m42-128l-42 0 0 54 42 0z"/>
<glyph glyph-name="partner" unicode="&#57365;" d="M502 364l-104 104c-7 6-16 10-25 10-9 0-18-4-25-10l-24-25c-4-3-7-8-8-13l-115 21c0 0 0 0 0 0-52 10-102-23-112-75l-6-26c-5-29 13-57 42-63 29-6 58 13 63 42l4 16 51-5 159-158c4-5 4-13 0-18-5-5-13-5-18 0l-65 65c-5 5-12 5-17 0-4-5-4-12 0-16l65-66c3-2 4-5 4-9 0-3-1-6-4-8-5-5-13-5-18 0l-65 65c-4 4-12 4-16 0-5-5-5-12 0-17l65-65c5-5 5-13 0-18-2-2-6-3-9-3-3 0-7 1-9 3l-65 65c-5 5-12 5-16 0-5-4-5-12 0-16l65-65c5-5 5-13 0-18-5-5-13-5-18 0l-231 230-30 31c-5 4-12 4-17 0-4-5-4-12 0-17l64-63-18-18c-6-6-10-14-10-23 0-8 4-16 10-22l6-6c5-5 12-8 19-9 1-7 4-14 9-19l6-6c5-6 12-9 19-9 1-8 4-15 9-20l6-6c6-5 12-8 19-9 1-7 4-14 10-19l6-6c6-6 14-9 22-9 8 0 16 3 22 9l19 18 43-43c7-7 16-11 26-11 9 0 18 4 25 11 7 6 10 14 11 23 9 1 17 4 23 11 7 6 10 15 11 24 9 0 17 3 24 10 6 7 10 15 10 24 9 0 17 4 24 10 14 14 14 37 0 51l-16 16 59 59 41 41c13 14 13 36 0 50z m-437-169c-3 4-3 9 0 12l17 17 18-18-17-17c-3-3-9-3-12 0z m34-34c-3 3-3 9 0 12l18 17 17-18-17-17c-3-3-8-3-12 0z m35-34c-2 1-3 3-3 6 0 2 1 4 3 6l17 17 18-18-17-17c-4-4-9-4-12 0z m52-41c-3-3-9-3-12 0l-6 6c-3 4-3 9 0 12l17 17 18-17z m199 145l-129 129c-1 2-4 3-7 3l-66 6c0 0 0 0-1 0-5 0-10-4-11-10l-5-26c-4-16-20-27-36-23-8 1-15 6-19 12-5 7-6 15-5 23l5 26c8 40 47 65 86 57 0 0 0 0 0 0l113-20 14-14 112-113z m100 100l-32-33-113 112c-2 3-3 5-3 9 0 3 1 6 3 8l25 24c2 3 5 4 8 4 3 0 6-1 8-4l104-104c3-2 4-5 4-8 0-3-1-6-4-8z m-16 3c0-6-5-11-12-11-6 0-11 5-11 11 0 7 5 12 11 12 7 0 12-5 12-12z"/>
<glyph glyph-name="best-student-experience" unicode="&#57366;" d="M479 154l-30 81 0 125 0 0c0 3-2 6-4 8l-198 142c0 0 0 0 0 0-4 3-8 3-12 0l-198-142c-3-2-4-5-4-8 0-3 1-6 4-8l100-76 0-30c0-44 17-84 45-107l0-29c-28-7-116-32-132-98-1-3 0-6 2-8 1-3 4-4 7-4l363 0c3 0 6 1 8 4 2 2 2 5 2 8-16 66-105 91-132 98l0 29c27 23 45 63 45 107l0 30 84 64 0-105-30-81c-2-5 1-10 6-12 1-1 2-1 3-1 4 0 8 3 10 7l11 30 0-27c0-5 4-10 10-10 5 0 10 5 10 10l0 27 11-30c2-4 5-7 9-7 2 0 3 0 4 1 5 2 8 7 6 12z m-406-134c5 11 13 20 22 28l23-28z m71 0l-33 40c15 10 32 17 46 22l50-62z m107 0l-19 0-10 12 39 0z m157 0l-43 0 22 27c9-8 16-17 21-27z m-37 39l-32-39-62 0 49 62c14-6 30-13 45-23z m-66 29l-29-37-69 0-30 37c10 3 16 4 16 4 5 1 8 5 8 10l0 23c13-6 26-9 40-9 14 0 27 3 39 9l0-23c0-5 3-9 8-10 0 0 7-1 17-4z m-64 48c-43 0-78 41-84 95 17 11 74 45 129 56 3-17 14-51 37-67-9-48-43-84-82-84z m-85 118l0 7c10 21 46 37 85 37 3 0 6 0 9 0-39-13-74-32-94-44z m169-8c0-1 0-1 0-1-8 9-14 23-17 35 8-6 14-12 17-19z m0 45c-20 17-51 27-84 27-34 0-65-11-85-27l0 18c0 27 39 49 85 49 45 0 84-22 84-49z m20 9l0 9c0 39-46 69-104 69-27 0-53-7-72-19-21-13-32-30-32-50l0-9-78 59 182 131 181-131z"/>
<glyph glyph-name="g" unicode="&#57367;" d="M256 486c5-2 0-5 5-10 5-5 10-13 15-20 6-8 8-16 13-26 3-10 5-20 5-33 0-23-5-44-15-59-5-8-10-13-15-21-11-2-16-10-23-15-3-5-8-10-11-15-5-5-7-11-7-18 0-8 2-13 5-18 2-5 8-8 10-10l23-18c15-13 26-26 39-39 10-15 15-33 15-56 0-33-15-61-44-87-30-26-71-38-128-38-46 0-84 10-107 28-23 18-36 41-36 66 0 13 3 26 10 41 8 16 21 28 41 41 23 13 44 21 69 26 23 2 44 5 59 5-5 5-10 13-13 20-5 8-7 16-7 26 0 5 0 10 2 15 5 3 8 5 8 11-8-3-15-3-21-3-35 0-64 13-81 33-21 21-31 46-31 72 0 33 13 64 41 90 18 15 38 25 59 30 23 5 41 8 59 8l135 0-48-26z m18-386c0 18-5 31-18 43-13 13-31 26-56 44-5 0-11 0-16 0-2 0-12 0-25-3-13-2-28-5-44-10-2-2-7-2-15-5-5-3-13-8-18-13-5-5-10-13-15-20-6-8-8-18-8-31 0-23 10-44 33-59 21-15 49-23 85-23 30 0 56 8 71 21 16 17 26 35 26 56z m-95 197c18 0 33 8 44 18 5 8 10 18 10 25 0 11 3 16 3 24 0 25-8 53-21 79-5 13-15 23-26 31-10 12-23 15-35 15-18 0-34-8-46-23-11-13-16-31-13-49 0-25 7-48 20-77 8-12 16-23 26-30 13-8 23-13 38-13z m333 138l-77 0 0 77-25 0 0-77-77 0 0-25 77 0 0-77 25 0 0 77 77 0z"/>
<glyph glyph-name="f" unicode="&#57368;" d="M384 230l0 103-77 0 0 51c0 26-5 49 26 51l51 0 0 77c-8 0-31 0-67 0-69 0-112-26-112-102l0-77-77 0 0-103 77 0 0-230 102 0 0 230z"/>
</font>
</defs>
</svg>
